<?xml version="1.0" encoding="utf-8"?>
<!-- Generator: Adobe Illustrator 19.1.0, SVG Export Plug-In . SVG Version: 6.00 Build 0)  -->
<svg version="1.1" id="圖層_1" xmlns="http://www.w3.org/2000/svg" xmlns:xlink="http://www.w3.org/1999/xlink" x="0px" y="0px"
	 viewBox="-271 190 20 20" style="enable-background:new -271 190 20 20;" xml:space="preserve">
<style type="text/css">
	.st0{display:none;}
	.st1{display:inline;fill:#717071;}
	.st2{fill:#717071;}
</style>
<g id="圖層_3" class="st0">
	<path class="st1" d="M-265,201.5c-0.4,0-0.7,0.3-0.7,0.7c0,0.4,0.3,0.7,0.7,0.7s0.7-0.3,0.7-0.7
		C-264.3,201.8-264.6,201.5-265,201.5L-265,201.5z M-265,204.4L-265,204.4c-0.4,0-0.7,0.3-0.7,0.7c0,0.4,0.3,0.7,0.7,0.7
		s0.7-0.3,0.7-0.7C-264.3,204.8-264.6,204.4-265,204.4L-265,204.4z M-265,198.5L-265,198.5c-0.4,0-0.7,0.3-0.7,0.7
		c0,0.4,0.3,0.7,0.7,0.7s0.7-0.3,0.7-0.7C-264.3,198.8-264.6,198.5-265,198.5L-265,198.5z M-256.8,198.8L-256.8,198.8h-6.1
		c-0.2,0-0.4,0.2-0.4,0.4s0.2,0.4,0.4,0.4h6.1c0.2,0,0.4-0.2,0.4-0.4S-256.6,198.8-256.8,198.8L-256.8,198.8z M-253.6,194.1
		L-253.6,194.1h-1.9v-0.4c0-0.2-0.2-0.4-0.4-0.4h-2.2c-0.1-0.5-0.4-0.9-0.7-1.3c-0.5-0.5-1.2-0.8-1.9-0.8l0,0c-0.8,0-1.5,0.3-2,0.8
		c-0.5,0.3-0.8,0.8-0.9,1.3h-2.2c-0.2,0-0.4,0.2-0.4,0.4v0.4h-2c-0.4,0-0.7,0.3-0.7,0.7v14.3c0,0.4,0.3,0.7,0.7,0.7h14.5
		c0.4,0,0.7-0.3,0.7-0.7v-14.3C-252.9,194.4-253.2,194.1-253.6,194.1L-253.6,194.1z M-262.3,192.6L-262.3,192.6
		c0.4-0.4,0.9-0.6,1.4-0.6l0,0c0.5,0,1,0.2,1.4,0.6c0.2,0.2,0.4,0.4,0.4,0.7h-3.6C-262.6,193-262.4,192.8-262.3,192.6L-262.3,192.6z
		 M-265.4,194.1L-265.4,194.1h9v1.3h-9V194.1L-265.4,194.1z M-254.3,208.4L-254.3,208.4h-13.2v-12.9h1.2v0.4c0,0.2,0.2,0.4,0.4,0.4
		h9.9c0.2,0,0.4-0.2,0.4-0.4v-0.4h1.2L-254.3,208.4L-254.3,208.4z M-256.8,204.7L-256.8,204.7h-6.1c-0.2,0-0.4,0.2-0.4,0.4
		c0,0.2,0.2,0.4,0.4,0.4h6.1c0.2,0,0.4-0.2,0.4-0.4C-256.4,204.9-256.6,204.7-256.8,204.7L-256.8,204.7z M-256.8,201.8L-256.8,201.8
		h-6.1c-0.2,0-0.4,0.2-0.4,0.4s0.2,0.4,0.4,0.4h6.1c0.2,0,0.4-0.2,0.4-0.4S-256.6,201.8-256.8,201.8L-256.8,201.8z"/>
</g>
<g id="圖層_2" class="st0">
	<path class="st1" d="M-254.5,204.7l3,3c0.3,0.3,0.3,0.7,0,1s-0.7,0.3-1,0l-3-3c-0.6,0.5-1.2,0.9-2,1.2c-0.9,0.4-1.9,0.6-2.9,0.6
		c-2.2,0-4.4-1-5.8-2.7c-0.7-0.9,0.4-1.7,1.2-0.7c1.2,1.3,2.8,2,4.6,2c0.9,0,1.7-0.2,2.4-0.5c0.8-0.3,1.4-0.8,2-1.3l0,0l0,0
		c0.6-0.6,1-1.3,1.4-2c0.3-0.7,0.5-1.5,0.5-2.4c0-0.8-0.2-1.6-0.5-2.4l0,0c-0.3-0.8-0.8-1.4-1.3-2l0,0c-0.6-0.6-1.3-1-2-1.3
		c-0.7-0.3-1.5-0.5-2.4-0.5c-2.6-0.2-4.8,1.4-5.7,3.6c-0.2,0.2-0.4,0.4-0.7,0.4l0,0c-0.2,0-0.5-0.1-0.6-0.3c-0.1-0.2-0.1-0.4,0-0.7
		c1.2-2.7,3.9-4.5,7-4.5c1,0,2,0.2,2.9,0.6l0,0c0.9,0.4,1.8,1,2.5,1.7l0,0c0.7,0.7,1.2,1.5,1.6,2.4l0,0c0.4,0.9,0.6,1.9,0.6,2.9
		s-0.2,2-0.6,2.9C-253.6,203.4-254,204.1-254.5,204.7L-254.5,204.7z M-270.1,201.7L-270.1,201.7c-0.2,0-0.4-0.2-0.4-0.4
		s0.2-0.4,0.4-0.4h3.1l1.8-3.1c0.1-0.2,0.4-0.3,0.6-0.1c0.1,0,0.1,0.1,0.1,0.1l1.8,2.9l0.9-0.9c0.2-0.2,0.4-0.2,0.6,0l0.1,0.1l1,2.1
		l1.3-5.5c0.1-0.2,0.3-0.4,0.5-0.3c0.1,0,0.1,0.1,0.2,0.1l1.9,1.9c0.2,0.2,0.2,0.4,0,0.6c-0.2,0.2-0.4,0.2-0.6,0l-1.4-1.4l-1.4,5.8
		c0,0.1-0.1,0.2-0.2,0.3c-0.2,0.1-0.5,0-0.6-0.2l-1.3-2.6l-0.8,0.9l-0.1,0.1c-0.2,0.1-0.5,0.1-0.6-0.1l-1.6-2.8l-1.6,2.7
		c-0.1,0.1-0.2,0.2-0.4,0.2H-270.1L-270.1,201.7z"/>
</g>
<path class="st2" d="M-265.6,204.1c-0.6-0.3-1.2-0.7-1.7-1.2c-0.5-0.5-0.9-1.1-1.2-1.7c-0.3-0.6-0.5-1.3-0.4-2v0c0-1,0.4-2,1.3-2.8
	c0,0,0.4-0.5,1.3-1.1l0,0c0.5-0.3,1.1-0.6,1.8-0.8c0.6-0.2,1.3-0.3,2-0.4c0.5,0,1.1,0,1.6,0c0.9,0,1.9,0,2.7-0.2
	c0.6-0.1,1.1-0.3,1.5-0.7c0.4-0.4,0.7-0.9,1-1.7c0.1-0.4,0.5-0.6,0.9-0.5c0.2,0.1,0.4,0.2,0.5,0.4v0l0,0c0.1,0.2,1.2,3.1,1.6,6.6
	c0.1,1.3,0.2,2.7,0,4.1c-0.1,1.2-0.4,2.3-0.9,3.3c-1,2.2-2.9,3.5-4.8,3.9c-0.9,0.2-1.7,0.2-2.5,0c-0.8-0.2-1.6-0.6-2.1-1.2
	c-0.8-0.8-1.2-1.9-1.2-3.3c-2.6,0.8-4.7,0.3-4.7,0.3c-0.2-0.1-0.4-0.3-0.3-0.5c0.1-0.2,0.3-0.4,0.5-0.3
	C-268.8,204.2-267.5,204.5-265.6,204.1L-265.6,204.1z M-262.5,203.1L-262.5,203.1c1-0.5,2.1-1.3,3-2.4c1.1-1.3,2.1-2.9,2.9-5.2
	c0.1-0.2,0.3-0.3,0.5-0.3c0.2,0.1,0.3,0.3,0.3,0.5c-0.8,2.3-1.9,4.1-3.1,5.5c-1.1,1.3-2.4,2.2-3.6,2.8c-0.4,0.2-0.4,0.3-0.4,0.8
	c0,1,0.3,1.8,0.8,2.3c0.4,0.4,0.9,0.6,1.4,0.8c0.6,0.1,1.3,0.1,1.9,0c1.5-0.3,3-1.4,3.8-3.1c0.4-0.9,0.6-1.9,0.7-2.9
	c0.1-1.2,0.1-2.5-0.1-3.8c-0.2-1.8-0.6-3.4-0.9-4.6c-0.2,0.2-0.4,0.5-0.6,0.7c-0.6,0.6-1.3,0.9-2.1,1c-0.9,0.2-2,0.2-3,0.2
	c-0.5,0-1,0-1.5,0c-0.6,0-1.2,0.2-1.7,0.3c-0.6,0.2-1.1,0.4-1.5,0.7l0,0c-0.7,0.4-1.1,0.9-1.1,0.9c-0.6,0.6-0.9,1.2-0.9,1.9v0
	c0,0.5,0.1,0.9,0.3,1.4c0.2,0.5,0.5,0.9,0.9,1.3c0.8,0.8,1.8,1.3,2.9,1.4C-263,203.3-262.9,203.3-262.5,203.1L-262.5,203.1z"/>
</svg>
