<?xml version="1.0" encoding="utf-8"?>
<!-- Generator: Adobe Illustrator 19.1.0, SVG Export Plug-In . SVG Version: 6.00 Build 0)  -->
<svg version="1.1" id="圖層_1" xmlns="http://www.w3.org/2000/svg" xmlns:xlink="http://www.w3.org/1999/xlink" x="0px" y="0px"
	 viewBox="-271 190 20 20" style="enable-background:new -271 190 20 20;" xml:space="preserve">
<style type="text/css">
	.st0{display:none;}
	.st1{display:inline;fill:#717071;}
	.st2{fill:#717071;}
</style>
<g id="圖層_1_1_" class="st0">
	<path class="st1" d="M-261.8,202c0-0.2-0.2-0.4-0.4-0.4h-2.8c-0.2,0-0.4,0.2-0.4,0.4s0.2,0.4,0.4,0.4h2.7
		C-262,202.4-261.8,202.2-261.8,202L-261.8,202z M-256.8,200.9L-256.8,200.9c-0.4-0.4-1-0.7-1.7-0.7s-1.2,0.3-1.7,0.7
		c-0.4,0.4-0.7,1-0.7,1.7c0,0.3,0.1,0.6,0.2,0.9l-1.5,2.6c-0.1,0.1-0.1,0.2-0.1,0.3c0.1,0.2,0.3,0.4,0.5,0.3l1.2-0.3l0.3,1.2
		c0,0.1,0.1,0.2,0.2,0.3c0.2,0.1,0.5,0,0.6-0.2l1-1.7l1,1.6c0,0.1,0.1,0.2,0.3,0.2c0.2,0.1,0.5-0.1,0.5-0.3l0.3-1.2l1.2,0.3
		c0.1,0,0.2,0,0.3-0.1c0.2-0.1,0.3-0.4,0.1-0.6l-1.5-2.6c0.1-0.3,0.2-0.6,0.2-0.9C-256.1,201.9-256.4,201.3-256.8,200.9
		L-256.8,200.9z M-258.9,204.9L-258.9,204.9l-0.8,1.4l-0.2-0.6c-0.1-0.2-0.3-0.4-0.5-0.3l0,0l-0.6,0.2l0.8-1.4l0,0
		C-259.8,204.6-259.4,204.8-258.9,204.9L-258.9,204.9L-258.9,204.9L-258.9,204.9L-258.9,204.9z M-259.8,203.4L-259.8,203.4
		L-259.8,203.4L-259.8,203.4c-0.2-0.3-0.2-0.5-0.2-0.8c0-0.4,0.2-0.8,0.5-1.1s0.7-0.5,1.1-0.5s0.8,0.2,1.1,0.5
		c0.3,0.3,0.5,0.7,0.5,1.1c0,0.4-0.2,0.8-0.4,1.1l0,0C-258.1,204.3-259.3,204.2-259.8,203.4L-259.8,203.4z M-256,205.6L-256,205.6
		l-0.6-0.2c-0.2-0.1-0.5,0.1-0.5,0.3l-0.2,0.6l-0.8-1.4l0,0l0,0l0,0l0,0l0,0c0.5-0.1,0.9-0.3,1.3-0.7l0,0L-256,205.6L-256,205.6z
		 M-253.1,196.7L-253.1,196.7l-5.1-5.1c-0.1-0.1-0.3-0.2-0.5-0.2h-8.3c-0.5,0-1,0.2-1.3,0.6c-0.4,0.3-0.6,0.8-0.6,1.3v14.5
		c0,0.5,0.2,1,0.5,1.3l0,0l0,0c0.4,0.3,0.9,0.5,1.4,0.5h12.2c0.5,0,1-0.2,1.3-0.5l0,0l0,0c0.3-0.3,0.5-0.8,0.5-1.3v-10.6
		C-252.9,197-253,196.8-253.1,196.7L-253.1,196.7z M-258.3,193.5L-258.3,193.5l3.3,3.3h-2.5c-0.2,0-0.4-0.1-0.5-0.2l0,0
		c-0.1-0.1-0.2-0.3-0.2-0.5L-258.3,193.5L-258.3,193.5z M-254.3,207.7L-254.3,207.7c0,0.1-0.1,0.2-0.1,0.3c-0.1,0.1-0.2,0.1-0.3,0.1
		H-267c-0.1,0-0.2-0.1-0.3-0.1c-0.1-0.1-0.1-0.2-0.1-0.3v-14.4c0-0.1,0.1-0.2,0.1-0.3c0.1-0.1,0.2-0.2,0.3-0.2h7.9v3.2
		c0,0.4,0.2,0.8,0.4,1.1l0,0c0.3,0.3,0.7,0.5,1.1,0.5h3.2L-254.3,207.7L-254.3,207.7z M-265,198.6L-265,198.6L-265,198.6L-265,198.6
		L-265,198.6L-265,198.6L-265,198.6L-265,198.6L-265,198.6L-265,198.6L-265,198.6L-265,198.6L-265,198.6h-0.1l0,0l0,0l0,0l0,0l0,0
		l0,0l0,0l0,0l0,0l0,0l0,0l0,0l0,0l0,0l0,0l0,0l0,0l0,0l0,0l0,0l0,0l0,0l0,0l0,0l0,0l0,0l0,0l0,0l0,0l0,0l0,0l0,0l0,0l0,0l0,0l0,0
		l0,0l0,0l0,0l0,0l0,0l0,0l0,0l0,0l0,0l0,0l0,0l0,0l0,0l0,0l0,0l0,0l0,0l0,0l0,0l0,0l0,0l0,0l0,0l0,0l0,0l0,0l0,0l0,0l0,0l0,0l0,0
		l0,0l0,0l0,0l0,0l0,0l0,0l0,0l0,0l0,0l0,0l0,0l0,0l0,0l0,0l0,0l0,0l0,0l0,0l0,0l0,0l0,0l0,0l0,0l0,0l0,0l0,0l0,0l0,0l0,0l0,0l0,0
		l0,0l0,0l0,0l0,0l0,0l0,0l0,0l0,0l0,0l0,0l0,0l0,0l0,0l0,0l0,0l0,0l0,0l0,0l0,0l0,0l0,0l0,0l0,0l0,0l0,0l0,0l0,0l0,0l0,0l0,0l0,0
		l0,0l0,0l0,0l0,0h8.1l0,0l0,0l0,0l0,0l0,0l0,0l0,0l0,0l0,0l0,0l0,0l0,0l0,0l0,0l0,0l0,0l0,0l0,0l0,0l0,0l0,0l0,0l0,0l0,0l0,0l0,0
		l0,0l0,0l0,0l0,0l0,0l0,0l0,0l0,0l0,0l0,0l0,0l0,0l0,0l0,0l0,0l0,0l0,0l0,0l0,0l0,0l0,0l0,0l0,0l0,0l0,0l0,0l0,0l0,0l0,0l0,0l0,0
		l0,0l0,0l0,0l0,0l0,0l0,0l0,0l0,0l0,0l0,0l0,0l0,0l0,0l0,0l0,0l0,0l0,0l0,0l0,0l0,0l0,0l0,0l0,0l0,0l0,0l0,0l0,0l0,0l0,0l0,0l0,0
		l0,0l0,0l0,0l0,0l0,0l0,0l0,0l0,0l0,0l0,0l0,0l0,0l0,0l0,0l0,0l0,0l0,0l0,0l0,0l0,0l0,0l0,0l0,0l0,0l0,0l0,0l0,0l0,0l0,0l0,0l0,0
		l0,0l0,0l0,0l0,0l0,0l0,0l0,0l0,0l0,0l0,0l0,0l0,0l0,0l0,0l0,0l0,0l0,0l0,0l0,0l0,0l0,0l0,0l0,0l0,0l0,0l0,0H-265L-265,198.6
		L-265,198.6z M-265,196.5L-265,196.5h4.5c0.2,0,0.4-0.2,0.4-0.4c0-0.2-0.2-0.4-0.4-0.4h-4.5c-0.2,0-0.4,0.2-0.4,0.4
		C-265.4,196.3-265.2,196.5-265,196.5L-265,196.5z"/>
</g>
<g id="圖層_2" class="st0">
	<path class="st1" d="M-254.5,204.7l3,3c0.3,0.3,0.3,0.7,0,1s-0.7,0.3-1,0l-3-3c-0.6,0.5-1.2,0.9-2,1.2c-0.9,0.4-1.9,0.6-2.9,0.6
		c-2.2,0-4.4-1-5.8-2.7c-0.7-0.9,0.4-1.7,1.2-0.7c1.2,1.3,2.8,2,4.6,2c0.9,0,1.7-0.2,2.4-0.5c0.8-0.3,1.4-0.8,2-1.3l0,0l0,0
		c0.6-0.6,1-1.3,1.4-2c0.3-0.7,0.5-1.5,0.5-2.4c0-0.8-0.2-1.6-0.5-2.4l0,0c-0.3-0.8-0.8-1.4-1.3-2l0,0c-0.6-0.6-1.3-1-2-1.3
		c-0.7-0.3-1.5-0.5-2.4-0.5c-2.6-0.2-4.8,1.4-5.7,3.6c-0.2,0.2-0.4,0.4-0.7,0.4l0,0c-0.2,0-0.5-0.1-0.6-0.3c-0.1-0.2-0.1-0.4,0-0.7
		c1.2-2.7,3.9-4.5,7-4.5c1,0,2,0.2,2.9,0.6l0,0c0.9,0.4,1.8,1,2.5,1.7l0,0c0.7,0.7,1.2,1.5,1.6,2.4l0,0c0.4,0.9,0.6,1.9,0.6,2.9
		s-0.2,2-0.6,2.9C-253.6,203.4-254,204.1-254.5,204.7L-254.5,204.7z M-270.1,201.7L-270.1,201.7c-0.2,0-0.4-0.2-0.4-0.4
		s0.2-0.4,0.4-0.4h3.1l1.8-3.1c0.1-0.2,0.4-0.3,0.6-0.1c0.1,0,0.1,0.1,0.1,0.1l1.8,2.9l0.9-0.9c0.2-0.2,0.4-0.2,0.6,0l0.1,0.1l1,2.1
		l1.3-5.5c0.1-0.2,0.3-0.4,0.5-0.3c0.1,0,0.1,0.1,0.2,0.1l1.9,1.9c0.2,0.2,0.2,0.4,0,0.6c-0.2,0.2-0.4,0.2-0.6,0l-1.4-1.4l-1.4,5.8
		c0,0.1-0.1,0.2-0.2,0.3c-0.2,0.1-0.5,0-0.6-0.2l-1.3-2.6l-0.8,0.9l-0.1,0.1c-0.2,0.1-0.5,0.1-0.6-0.1l-1.6-2.8l-1.6,2.7
		c-0.1,0.1-0.2,0.2-0.4,0.2H-270.1L-270.1,201.7z"/>
</g>
<path class="st2" d="M-264.4,199.8v5.9h6.8v-5.9H-264.4L-264.4,199.8z M-256.8,199.8L-256.8,199.8v5.9h0.3v-4.4
	c0-0.2,0.1-0.4,0.3-0.5v-1H-256.8L-256.8,199.8z M-256.3,198.5L-256.3,198.5v-1.2c-0.2,0-0.5,0.1-0.7,0.1c-1.3,0.1-2.7,0.2-4.1,0.2
	c-1.4,0-2.7-0.1-4-0.2c-0.2,0-0.5,0-0.7-0.1v1.2H-256.3L-256.3,198.5z M-265.8,199.8L-265.8,199.8v1c0.2,0.1,0.3,0.3,0.3,0.5v4.4
	h0.3v-5.9H-265.8L-265.8,199.8z M-267.6,199.8L-267.6,199.8c-0.4,0-0.7-0.3-0.7-0.7c0-0.4,0.3-0.7,0.7-0.7h1v-1.3
	c-0.8-0.1-1.7-0.3-2.5-0.4c-0.2-0.1-0.4-0.3-0.3-0.5c0-0.2,0.3-0.4,0.5-0.3c0.8,0.2,1.5,0.3,2.3,0.4V196c-0.9-0.1-1.7-0.3-2.6-0.4
	c-0.4-0.1-0.6-0.4-0.5-0.8c0.1-0.4,0.4-0.6,0.8-0.5c1.3,0.3,2.6,0.5,3.9,0.6c1.3,0.1,2.6,0.2,3.9,0.2h0h0c1.3,0,2.7-0.1,3.9-0.2
	c1.3-0.1,2.6-0.3,3.9-0.6c0.3-0.1,0.7,0.2,0.8,0.5c0.1,0.4-0.2,0.7-0.5,0.8c-0.9,0.2-1.7,0.3-2.6,0.4v0.4c0.8-0.1,1.6-0.2,2.4-0.4
	c0.2,0,0.4,0.1,0.5,0.3c0,0.2-0.1,0.4-0.3,0.5c-0.8,0.2-1.7,0.3-2.5,0.4v1.3h1c0.4,0,0.7,0.3,0.7,0.7c0,0.4-0.3,0.7-0.7,0.7h-1v1
	c0.2,0.1,0.3,0.3,0.3,0.5v4.4h3c0.4,0,0.7,0.3,0.7,0.7c0,0.4-0.3,0.7-0.7,0.7h-17.6c-0.4,0-0.7-0.3-0.7-0.7c0-0.4,0.3-0.7,0.7-0.7h3
	v-4.4c0-0.2,0.1-0.4,0.3-0.5v-1H-267.6L-267.6,199.8z M-260.4,196.3L-260.4,196.3v0.4c1.1,0,2.2-0.1,3.3-0.2c0.3,0,0.5,0,0.8-0.1
	v-0.4c-0.2,0-0.4,0.1-0.7,0.1C-258.1,196.3-259.2,196.3-260.4,196.3L-260.4,196.3z M-261.7,196.8L-261.7,196.8v-0.4
	c-1.1,0-2.3-0.1-3.4-0.2c-0.2,0-0.4,0-0.7-0.1v0.4c0.3,0,0.5,0.1,0.8,0.1C-263.9,196.7-262.8,196.8-261.7,196.8L-261.7,196.8z"/>
</svg>
