<?xml version="1.0" encoding="utf-8"?>
<!-- Generator: Adobe Illustrator 19.1.0, SVG Export Plug-In . SVG Version: 6.00 Build 0)  -->
<svg version="1.1" id="圖層_1" xmlns="http://www.w3.org/2000/svg" xmlns:xlink="http://www.w3.org/1999/xlink" x="0px" y="0px"
	 viewBox="-271 190 20 20" style="enable-background:new -271 190 20 20;" xml:space="preserve">
<style type="text/css">
	.st0{display:none;}
	.st1{display:inline;fill:#717071;}
	.st2{fill-rule:evenodd;clip-rule:evenodd;fill:#717071;}
</style>
<g id="圖層_1_1_" class="st0">
	<path class="st1" d="M-261.8,202c0-0.2-0.2-0.4-0.4-0.4h-2.8c-0.2,0-0.4,0.2-0.4,0.4s0.2,0.4,0.4,0.4h2.7
		C-262,202.4-261.8,202.2-261.8,202L-261.8,202z M-256.8,200.9L-256.8,200.9c-0.4-0.4-1-0.7-1.7-0.7s-1.2,0.3-1.7,0.7
		c-0.4,0.4-0.7,1-0.7,1.7c0,0.3,0.1,0.6,0.2,0.9l-1.5,2.6c-0.1,0.1-0.1,0.2-0.1,0.3c0.1,0.2,0.3,0.4,0.5,0.3l1.2-0.3l0.3,1.2
		c0,0.1,0.1,0.2,0.2,0.3c0.2,0.1,0.5,0,0.6-0.2l1-1.7l1,1.6c0,0.1,0.1,0.2,0.3,0.2c0.2,0.1,0.5-0.1,0.5-0.3l0.3-1.2l1.2,0.3
		c0.1,0,0.2,0,0.3-0.1c0.2-0.1,0.3-0.4,0.1-0.6l-1.5-2.6c0.1-0.3,0.2-0.6,0.2-0.9C-256.1,201.9-256.4,201.3-256.8,200.9
		L-256.8,200.9z M-258.9,204.9L-258.9,204.9l-0.8,1.4l-0.2-0.6c-0.1-0.2-0.3-0.4-0.5-0.3l0,0l-0.6,0.2l0.8-1.4l0,0
		C-259.8,204.6-259.4,204.8-258.9,204.9L-258.9,204.9L-258.9,204.9L-258.9,204.9L-258.9,204.9z M-259.8,203.4L-259.8,203.4
		L-259.8,203.4L-259.8,203.4c-0.2-0.3-0.2-0.5-0.2-0.8c0-0.4,0.2-0.8,0.5-1.1s0.7-0.5,1.1-0.5s0.8,0.2,1.1,0.5
		c0.3,0.3,0.5,0.7,0.5,1.1c0,0.4-0.2,0.8-0.4,1.1l0,0C-258.1,204.3-259.3,204.2-259.8,203.4L-259.8,203.4z M-256,205.6L-256,205.6
		l-0.6-0.2c-0.2-0.1-0.5,0.1-0.5,0.3l-0.2,0.6l-0.8-1.4l0,0l0,0l0,0l0,0l0,0c0.5-0.1,0.9-0.3,1.3-0.7l0,0L-256,205.6L-256,205.6z
		 M-253.1,196.7L-253.1,196.7l-5.1-5.1c-0.1-0.1-0.3-0.2-0.5-0.2h-8.3c-0.5,0-1,0.2-1.3,0.6c-0.4,0.3-0.6,0.8-0.6,1.3v14.5
		c0,0.5,0.2,1,0.5,1.3l0,0l0,0c0.4,0.3,0.9,0.5,1.4,0.5h12.2c0.5,0,1-0.2,1.3-0.5l0,0l0,0c0.3-0.3,0.5-0.8,0.5-1.3v-10.6
		C-252.9,197-253,196.8-253.1,196.7L-253.1,196.7z M-258.3,193.5L-258.3,193.5l3.3,3.3h-2.5c-0.2,0-0.4-0.1-0.5-0.2l0,0
		c-0.1-0.1-0.2-0.3-0.2-0.5L-258.3,193.5L-258.3,193.5z M-254.3,207.7L-254.3,207.7c0,0.1-0.1,0.2-0.1,0.3c-0.1,0.1-0.2,0.1-0.3,0.1
		H-267c-0.1,0-0.2-0.1-0.3-0.1c-0.1-0.1-0.1-0.2-0.1-0.3v-14.4c0-0.1,0.1-0.2,0.1-0.3c0.1-0.1,0.2-0.2,0.3-0.2h7.9v3.2
		c0,0.4,0.2,0.8,0.4,1.1l0,0c0.3,0.3,0.7,0.5,1.1,0.5h3.2L-254.3,207.7L-254.3,207.7z M-265,198.6L-265,198.6L-265,198.6L-265,198.6
		L-265,198.6L-265,198.6L-265,198.6L-265,198.6L-265,198.6L-265,198.6L-265,198.6L-265,198.6L-265,198.6h-0.1l0,0l0,0l0,0l0,0l0,0
		l0,0l0,0l0,0l0,0l0,0l0,0l0,0l0,0l0,0l0,0l0,0l0,0l0,0l0,0l0,0l0,0l0,0l0,0l0,0l0,0l0,0l0,0l0,0l0,0l0,0l0,0l0,0l0,0l0,0l0,0l0,0
		l0,0l0,0l0,0l0,0l0,0l0,0l0,0l0,0l0,0l0,0l0,0l0,0l0,0l0,0l0,0l0,0l0,0l0,0l0,0l0,0l0,0l0,0l0,0l0,0l0,0l0,0l0,0l0,0l0,0l0,0l0,0
		l0,0l0,0l0,0l0,0l0,0l0,0l0,0l0,0l0,0l0,0l0,0l0,0l0,0l0,0l0,0l0,0l0,0l0,0l0,0l0,0l0,0l0,0l0,0l0,0l0,0l0,0l0,0l0,0l0,0l0,0l0,0
		l0,0l0,0l0,0l0,0l0,0l0,0l0,0l0,0l0,0l0,0l0,0l0,0l0,0l0,0l0,0l0,0l0,0l0,0l0,0l0,0l0,0l0,0l0,0l0,0l0,0l0,0l0,0l0,0l0,0l0,0l0,0
		l0,0l0,0l0,0l0,0h8.1l0,0l0,0l0,0l0,0l0,0l0,0l0,0l0,0l0,0l0,0l0,0l0,0l0,0l0,0l0,0l0,0l0,0l0,0l0,0l0,0l0,0l0,0l0,0l0,0l0,0l0,0
		l0,0l0,0l0,0l0,0l0,0l0,0l0,0l0,0l0,0l0,0l0,0l0,0l0,0l0,0l0,0l0,0l0,0l0,0l0,0l0,0l0,0l0,0l0,0l0,0l0,0l0,0l0,0l0,0l0,0l0,0l0,0
		l0,0l0,0l0,0l0,0l0,0l0,0l0,0l0,0l0,0l0,0l0,0l0,0l0,0l0,0l0,0l0,0l0,0l0,0l0,0l0,0l0,0l0,0l0,0l0,0l0,0l0,0l0,0l0,0l0,0l0,0l0,0
		l0,0l0,0l0,0l0,0l0,0l0,0l0,0l0,0l0,0l0,0l0,0l0,0l0,0l0,0l0,0l0,0l0,0l0,0l0,0l0,0l0,0l0,0l0,0l0,0l0,0l0,0l0,0l0,0l0,0l0,0l0,0
		l0,0l0,0l0,0l0,0l0,0l0,0l0,0l0,0l0,0l0,0l0,0l0,0l0,0l0,0l0,0l0,0l0,0l0,0l0,0l0,0l0,0l0,0l0,0l0,0l0,0l0,0H-265L-265,198.6
		L-265,198.6z M-265,196.5L-265,196.5h4.5c0.2,0,0.4-0.2,0.4-0.4c0-0.2-0.2-0.4-0.4-0.4h-4.5c-0.2,0-0.4,0.2-0.4,0.4
		C-265.4,196.3-265.2,196.5-265,196.5L-265,196.5z"/>
</g>
<g id="圖層_3" class="st0">
	<path class="st1" d="M-265,201.5c-0.4,0-0.7,0.3-0.7,0.7c0,0.4,0.3,0.7,0.7,0.7s0.7-0.3,0.7-0.7
		C-264.3,201.8-264.6,201.5-265,201.5L-265,201.5z M-265,204.4L-265,204.4c-0.4,0-0.7,0.3-0.7,0.7c0,0.4,0.3,0.7,0.7,0.7
		s0.7-0.3,0.7-0.7C-264.3,204.8-264.6,204.4-265,204.4L-265,204.4z M-265,198.5L-265,198.5c-0.4,0-0.7,0.3-0.7,0.7
		c0,0.4,0.3,0.7,0.7,0.7s0.7-0.3,0.7-0.7C-264.3,198.8-264.6,198.5-265,198.5L-265,198.5z M-256.8,198.8L-256.8,198.8h-6.1
		c-0.2,0-0.4,0.2-0.4,0.4s0.2,0.4,0.4,0.4h6.1c0.2,0,0.4-0.2,0.4-0.4S-256.6,198.8-256.8,198.8L-256.8,198.8z M-253.6,194.1
		L-253.6,194.1h-1.9v-0.4c0-0.2-0.2-0.4-0.4-0.4h-2.2c-0.1-0.5-0.4-0.9-0.7-1.3c-0.5-0.5-1.2-0.8-1.9-0.8l0,0c-0.8,0-1.5,0.3-2,0.8
		c-0.5,0.3-0.8,0.8-0.9,1.3h-2.2c-0.2,0-0.4,0.2-0.4,0.4v0.4h-2c-0.4,0-0.7,0.3-0.7,0.7v14.3c0,0.4,0.3,0.7,0.7,0.7h14.5
		c0.4,0,0.7-0.3,0.7-0.7v-14.3C-252.9,194.4-253.2,194.1-253.6,194.1L-253.6,194.1z M-262.3,192.6L-262.3,192.6
		c0.4-0.4,0.9-0.6,1.4-0.6l0,0c0.5,0,1,0.2,1.4,0.6c0.2,0.2,0.4,0.4,0.4,0.7h-3.6C-262.6,193-262.4,192.8-262.3,192.6L-262.3,192.6z
		 M-265.4,194.1L-265.4,194.1h9v1.3h-9V194.1L-265.4,194.1z M-254.3,208.4L-254.3,208.4h-13.2v-12.9h1.2v0.4c0,0.2,0.2,0.4,0.4,0.4
		h9.9c0.2,0,0.4-0.2,0.4-0.4v-0.4h1.2L-254.3,208.4L-254.3,208.4z M-256.8,204.7L-256.8,204.7h-6.1c-0.2,0-0.4,0.2-0.4,0.4
		c0,0.2,0.2,0.4,0.4,0.4h6.1c0.2,0,0.4-0.2,0.4-0.4C-256.4,204.9-256.6,204.7-256.8,204.7L-256.8,204.7z M-256.8,201.8L-256.8,201.8
		h-6.1c-0.2,0-0.4,0.2-0.4,0.4s0.2,0.4,0.4,0.4h6.1c0.2,0,0.4-0.2,0.4-0.4S-256.6,201.8-256.8,201.8L-256.8,201.8z"/>
</g>
<path class="st2" d="M-254.7,197.7c0.4,0,0.7,0.3,0.7,0.7c0,0.4-0.3,0.7-0.7,0.7c-0.4,0-0.7-0.3-0.7-0.7
	C-255.4,198-255.1,197.7-254.7,197.7L-254.7,197.7z M-266,194.8L-266,194.8h-2.4v0.4h2.3L-266,194.8L-266,194.8z M-269.3,195.2
	L-269.3,195.2h-0.5h0c-0.4,0-0.7,0.3-0.7,0.7v11.3v0c0,0.4,0.3,0.7,0.7,0.7h17.7h0c0.4,0,0.7-0.3,0.7-0.7V196v0
	c0-0.4-0.3-0.7-0.7-0.7h-3.8l-0.8-2.1c-0.1-0.3-0.4-0.5-0.7-0.5h-7.2c-0.3,0-0.6,0.2-0.7,0.5l-0.3,0.9h-3.2c-0.2,0-0.4,0.2-0.4,0.4
	v0V195.2L-269.3,195.2z M-261,198.1L-261,198.1c0.7,0,1.3,0.3,1.8,0.7c0.5,0.5,0.7,1.1,0.7,1.8c0,1.4-1.1,2.5-2.5,2.5
	s-2.5-1.1-2.5-2.5C-263.5,199.3-262.4,198.1-261,198.1L-261,198.1z M-259.9,199.5L-259.9,199.5L-259.9,199.5
	c0.3,0.3,0.5,0.7,0.5,1.1c0,0.9-0.7,1.6-1.6,1.6c-0.9,0-1.6-0.7-1.6-1.6c0-0.9,0.7-1.6,1.6-1.6C-260.6,199-260.2,199.2-259.9,199.5
	L-259.9,199.5z M-265.6,196.7L-265.6,196.7h-3.5v9.9h16.3v-9.9h-3.5v0c-0.3,0-0.6-0.2-0.7-0.5l-0.8-2.2h-6.2l-0.8,2.1
	C-265,196.4-265.3,196.7-265.6,196.7L-265.6,196.7z M-261,195.5L-261,195.5c2.8,0,5.1,2.3,5.1,5.1c0,2.8-2.3,5.1-5.1,5.1
	c-2.8,0-5.1-2.3-5.1-5.1C-266.1,197.8-263.8,195.5-261,195.5L-261,195.5z M-261,197L-261,197c2,0,3.6,1.6,3.6,3.6
	c0,2-1.6,3.6-3.6,3.6c-2,0-3.6-1.6-3.6-3.6S-263,197-261,197L-261,197z"/>
</svg>
