<?xml version="1.0" encoding="utf-8"?>
<!-- Generator: Adobe Illustrator 19.1.0, SVG Export Plug-In . SVG Version: 6.00 Build 0)  -->
<svg version="1.1" xmlns="http://www.w3.org/2000/svg" xmlns:xlink="http://www.w3.org/1999/xlink" x="0px" y="0px"
	 viewBox="0 0 20 20" style="enable-background:new 0 0 20 20;" xml:space="preserve">
<style type="text/css">
	.st0{display:none;}
	.st1{display:inline;fill:#717071;}
	.st2{fill:#717071;}
</style>
<g id="圖層_1" class="st0">
	<path class="st1" d="M9.2,12c0-0.2-0.2-0.4-0.4-0.4H6c-0.2,0-0.4,0.2-0.4,0.4c0,0.2,0.2,0.4,0.4,0.4h2.7C9,12.4,9.2,12.2,9.2,12
		L9.2,12z M14.2,10.9L14.2,10.9c-0.4-0.4-1-0.7-1.7-0.7c-0.7,0-1.2,0.3-1.7,0.7c-0.4,0.4-0.7,1-0.7,1.7c0,0.3,0.1,0.6,0.2,0.9
		l-1.5,2.6c-0.1,0.1-0.1,0.2-0.1,0.3c0.1,0.2,0.3,0.4,0.5,0.3l1.2-0.3l0.3,1.2c0,0.1,0.1,0.2,0.2,0.3c0.2,0.1,0.5,0,0.6-0.2l1-1.7
		l1,1.6c0,0.1,0.1,0.2,0.3,0.2c0.2,0.1,0.5-0.1,0.5-0.3l0.3-1.2l1.2,0.3c0.1,0,0.2,0,0.3-0.1c0.2-0.1,0.3-0.4,0.1-0.6l-1.5-2.6
		c0.1-0.3,0.2-0.6,0.2-0.9C14.9,11.9,14.6,11.3,14.2,10.9L14.2,10.9z M12.1,14.9L12.1,14.9l-0.8,1.4l-0.2-0.6
		c-0.1-0.2-0.3-0.4-0.5-0.3l0,0L10,15.6l0.8-1.4h0C11.2,14.6,11.6,14.8,12.1,14.9L12.1,14.9L12.1,14.9L12.1,14.9L12.1,14.9z
		 M11.2,13.4L11.2,13.4L11.2,13.4L11.2,13.4C11,13.1,11,12.9,11,12.6c0-0.4,0.2-0.8,0.5-1.1c0.3-0.3,0.7-0.5,1.1-0.5
		s0.8,0.2,1.1,0.5c0.3,0.3,0.5,0.7,0.5,1.1c0,0.4-0.2,0.8-0.4,1.1l0,0C12.9,14.3,11.7,14.2,11.2,13.4L11.2,13.4z M15,15.6L15,15.6
		l-0.6-0.2c-0.2-0.1-0.5,0.1-0.5,0.3l-0.2,0.6l-0.8-1.4l0,0h0h0l0,0h0c0.5-0.1,0.9-0.3,1.3-0.7l0,0L15,15.6L15,15.6z M17.9,6.7
		L17.9,6.7l-5.1-5.1c-0.1-0.1-0.3-0.2-0.5-0.2H4C3.5,1.4,3,1.6,2.7,2C2.3,2.3,2.1,2.8,2.1,3.3v14.5c0,0.5,0.2,1,0.5,1.3l0,0v0
		C3,19.4,3.5,19.6,4,19.6h12.2c0.5,0,1-0.2,1.3-0.5l0,0l0,0c0.3-0.3,0.5-0.8,0.5-1.3V7.2C18.1,7,18,6.8,17.9,6.7L17.9,6.7z
		 M12.7,3.5L12.7,3.5L16,6.8h-2.5c-0.2,0-0.4-0.1-0.5-0.2l0,0c-0.1-0.1-0.2-0.3-0.2-0.5V3.5L12.7,3.5z M16.7,17.7L16.7,17.7
		c0,0.1-0.1,0.2-0.1,0.3c-0.1,0.1-0.2,0.1-0.3,0.1H4c-0.1,0-0.2-0.1-0.3-0.1c-0.1-0.1-0.1-0.2-0.1-0.3V3.3c0-0.1,0.1-0.2,0.1-0.3
		C3.8,2.9,3.9,2.8,4,2.8h7.9V6c0,0.4,0.2,0.8,0.4,1.1l0,0c0.3,0.3,0.7,0.5,1.1,0.5h3.2V17.7L16.7,17.7z M6,8.6L6,8.6L6,8.6L6,8.6
		L6,8.6L6,8.6L6,8.6L6,8.6L6,8.6L6,8.6L6,8.6L6,8.6L6,8.6l-0.1,0l0,0l0,0h0l0,0v0h0h0l0,0h0l0,0h0l0,0h0l0,0h0l0,0v0l0,0h0l0,0v0h0
		l0,0l0,0l0,0l0,0l0,0v0l0,0h0v0l0,0l0,0v0l0,0v0h0v0l0,0l0,0l0,0l0,0v0l0,0l0,0v0l0,0v0l0,0l0,0v0l0,0v0v0v0v0v0v0v0v0v0v0v0v0v0v0
		v0l0,0v0l0,0v0v0v0l0,0l0,0l0,0v0l0,0l0,0l0,0l0,0l0,0v0l0,0v0l0,0v0l0,0v0l0,0l0,0v0h0l0,0l0,0l0,0l0,0l0,0v0l0,0l0,0l0,0l0,0v0h0
		h0l0,0l0,0h0h0v0h0h0l0,0h0l0,0h0v0h0h0l0,0h0l0,0h0l0,0h0l0,0h0h0h0h0h0h0h8.1h0h0h0h0h0h0l0,0h0l0,0h0v0h0l0,0h0h0v0h0l0,0h0l0,0
		h0h0v0h0h0l0,0l0,0h0h0v0l0,0l0,0l0,0l0,0l0,0l0,0l0,0l0,0v0h0v0l0,0l0,0v0l0,0v0l0,0v0l0,0v0l0,0l0,0v0l0,0l0,0l0,0l0,0v0l0,0v0
		l0,0v0l0,0v0v0v0v0v0l0,0v0v0v0v0v0v0v0l0,0v0v0v0v0v0l0,0l0,0l0,0l0,0v0l0,0v0l0,0l0,0v0l0,0l0,0v0h0v0l0,0v0l0,0l0,0v0h0l0,0v0
		l0,0v0l0,0l0,0l0,0h0l0,0l0,0h0l0,0v0l0,0h0l0,0h0l0,0h0l0,0h0l0,0h0h0v0l0,0h0l0,0l0,0l0,0h0v0h0h0v0h0h0h0h0h0h0l0,0L6,8.6L6,8.6
		L6,8.6z M6,6.5L6,6.5h4.5c0.2,0,0.4-0.2,0.4-0.4c0-0.2-0.2-0.4-0.4-0.4H6c-0.2,0-0.4,0.2-0.4,0.4C5.6,6.3,5.8,6.5,6,6.5L6,6.5z"/>
</g>
<g id="圖層_3" class="st0">
	<path class="st1" d="M6,11.5c-0.4,0-0.7,0.3-0.7,0.7c0,0.4,0.3,0.7,0.7,0.7c0.4,0,0.7-0.3,0.7-0.7C6.7,11.8,6.4,11.5,6,11.5L6,11.5
		z M6,14.4L6,14.4c-0.4,0-0.7,0.3-0.7,0.7c0,0.4,0.3,0.7,0.7,0.7c0.4,0,0.7-0.3,0.7-0.7C6.7,14.8,6.4,14.4,6,14.4L6,14.4z M6,8.5
		L6,8.5c-0.4,0-0.7,0.3-0.7,0.7c0,0.4,0.3,0.7,0.7,0.7c0.4,0,0.7-0.3,0.7-0.7C6.7,8.8,6.4,8.5,6,8.5L6,8.5z M14.2,8.8L14.2,8.8H8.1
		C7.9,8.8,7.7,9,7.7,9.2s0.2,0.4,0.4,0.4h6.1c0.2,0,0.4-0.2,0.4-0.4S14.4,8.8,14.2,8.8L14.2,8.8z M17.4,4.1L17.4,4.1h-1.9V3.7
		c0-0.2-0.2-0.4-0.4-0.4h-2.2c-0.1-0.5-0.4-0.9-0.7-1.3c-0.5-0.5-1.2-0.8-1.9-0.8l0,0c-0.8,0-1.5,0.3-2,0.8C7.8,2.3,7.5,2.8,7.4,3.3
		H5.2c-0.2,0-0.4,0.2-0.4,0.4v0.4H2.8c-0.4,0-0.7,0.3-0.7,0.7v14.3c0,0.4,0.3,0.7,0.7,0.7h14.5c0.4,0,0.7-0.3,0.7-0.7V4.8
		C18.1,4.4,17.8,4.1,17.4,4.1L17.4,4.1z M8.7,2.6L8.7,2.6C9.1,2.2,9.6,2,10.1,2l0,0c0.5,0,1,0.2,1.4,0.6c0.2,0.2,0.4,0.4,0.4,0.7
		H8.3C8.4,3,8.6,2.8,8.7,2.6L8.7,2.6z M5.6,4.1L5.6,4.1h9v1.3h-9V4.1L5.6,4.1z M16.7,18.4L16.7,18.4H3.5V5.5h1.2v0.4
		c0,0.2,0.2,0.4,0.4,0.4H15c0.2,0,0.4-0.2,0.4-0.4V5.5h1.2V18.4L16.7,18.4z M14.2,14.7L14.2,14.7H8.1c-0.2,0-0.4,0.2-0.4,0.4
		c0,0.2,0.2,0.4,0.4,0.4h6.1c0.2,0,0.4-0.2,0.4-0.4C14.6,14.9,14.4,14.7,14.2,14.7L14.2,14.7z M14.2,11.8L14.2,11.8H8.1
		c-0.2,0-0.4,0.2-0.4,0.4c0,0.2,0.2,0.4,0.4,0.4h6.1c0.2,0,0.4-0.2,0.4-0.4C14.6,12,14.4,11.8,14.2,11.8L14.2,11.8z"/>
</g>
<g id="圖層_2">
	<path class="st2" d="M16.5,14.7l3,3c0.3,0.3,0.3,0.7,0,1c-0.3,0.3-0.7,0.3-1,0l-3-3c-0.6,0.5-1.2,0.9-2,1.2
		c-0.9,0.4-1.9,0.6-2.9,0.6c-2.2,0-4.4-1-5.8-2.7c-0.7-0.9,0.4-1.7,1.2-0.7c1.2,1.3,2.8,2,4.6,2c0.9,0,1.7-0.2,2.4-0.5
		c0.8-0.3,1.4-0.8,2-1.3l0,0l0,0c0.6-0.6,1-1.3,1.4-2c0.3-0.7,0.5-1.5,0.5-2.4c0-0.8-0.2-1.6-0.5-2.4l0,0c-0.3-0.8-0.8-1.4-1.3-2
		l0,0c-0.6-0.6-1.3-1-2-1.3c-0.7-0.3-1.5-0.5-2.4-0.5C8.1,3.5,5.9,5.1,5,7.3C4.8,7.5,4.6,7.7,4.3,7.7h0c-0.2,0-0.5-0.1-0.6-0.3
		c-0.1-0.2-0.1-0.4,0-0.7c1.2-2.7,3.9-4.5,7-4.5c1,0,2,0.2,2.9,0.6l0,0c0.9,0.4,1.8,1,2.5,1.7l0,0c0.7,0.7,1.2,1.5,1.6,2.4l0,0
		c0.4,0.9,0.6,1.9,0.6,2.9c0,1-0.2,2-0.6,2.9C17.4,13.4,17,14.1,16.5,14.7L16.5,14.7z M0.9,11.7L0.9,11.7c-0.2,0-0.4-0.2-0.4-0.4
		c0-0.2,0.2-0.4,0.4-0.4H4l1.8-3.1c0.1-0.2,0.4-0.3,0.6-0.1c0.1,0,0.1,0.1,0.1,0.1l1.8,2.9l0.9-0.9c0.2-0.2,0.4-0.2,0.6,0
		c0,0,0.1,0.1,0.1,0.1l1,2.1l1.3-5.5c0.1-0.2,0.3-0.4,0.5-0.3c0.1,0,0.1,0.1,0.2,0.1l1.9,1.9c0.2,0.2,0.2,0.4,0,0.6
		c-0.2,0.2-0.4,0.2-0.6,0l-1.4-1.4l-1.4,5.8c0,0.1-0.1,0.2-0.2,0.3c-0.2,0.1-0.5,0-0.6-0.2l-1.3-2.6l-0.8,0.9c0,0-0.1,0.1-0.1,0.1
		c-0.2,0.1-0.5,0.1-0.6-0.1L6.2,8.8l-1.6,2.7c-0.1,0.1-0.2,0.2-0.4,0.2H0.9L0.9,11.7z"/>
</g>
</svg>
