<?xml version="1.0" encoding="utf-8"?>
<!-- Generator: Adobe Illustrator 19.1.0, SVG Export Plug-In . SVG Version: 6.00 Build 0)  -->
<svg version="1.1" id="圖層_1" xmlns="http://www.w3.org/2000/svg" xmlns:xlink="http://www.w3.org/1999/xlink" x="0px" y="0px"
	 viewBox="0 0 564 398" style="enable-background:new 0 0 564 398;" xml:space="preserve">
<style type="text/css">
	.st0{display:none;}
	.st1{display:inline;fill:#4C4C4E;}
	.st2{display:inline;opacity:0.8;fill:#4C4C4E;enable-background:new    ;}
	.st3{display:inline;opacity:0.6;fill:#4C4C4E;enable-background:new    ;}
	.st4{display:inline;opacity:0.4;fill:#4C4C4E;enable-background:new    ;}
	.st5{display:inline;opacity:0.1;fill:#4C4C4E;enable-background:new    ;}
	.st6{display:inline;opacity:0.2;fill:#4C4C4E;enable-background:new    ;}
	.st7{display:inline;fill:none;}
	.st8{font-family:'HelveticaNeue';}
	.st9{font-size:11px;}
	.st10{display:inline;}
	.st11{fill:none;stroke:#00ADEE;stroke-width:0.5;stroke-miterlimit:10;}
	.st12{fill:none;stroke:#00ADEE;stroke-miterlimit:10;}
	.st13{fill:#4C4C4E;}
	.st14{fill:#FFFFFF;}
</style>
<g id="圖層_1_1_" class="st0">
	<rect x="47" y="132.7" class="st1" width="470" height="182.4"/>
	<rect x="47" y="315.1" class="st2" width="94" height="33.2"/>
	<rect x="141" y="315.1" class="st3" width="94" height="33.2"/>
	<rect x="235" y="315.1" class="st4" width="94" height="33.2"/>
	<rect x="423" y="315.1" class="st5" width="94" height="33.2"/>
	<rect x="329" y="315.1" class="st6" width="94" height="33.2"/>
	<rect x="47" y="48.3" class="st7" width="228.5" height="73"/>
	<text transform="matrix(1 0 0 1 46.9999 57.7506)" class="st1 st8 st9">#373839</text>
	<text transform="matrix(1 0 0 1 46.9999 78.7506)" class="st1 st8 st9">PANTONE P 179-14 C                                   </text>
	<text transform="matrix(1 0 0 1 46.9999 99.7506)" class="st1 st8 st9">CMYK 0 / 0 / 0 / 90  </text>
	<text transform="matrix(1 0 0 1 46.9999 120.7506)" class="st1 st8 st9">RGB 56 / 56 / 58</text>
</g>
<g id="圖層_3" class="st0">
	<g class="st10">
		<line class="st11" x1="0" y1="0" x2="0" y2="398"/>
		<line class="st11" x1="564" y1="0" x2="564" y2="398"/>
		<line class="st11" x1="540.5" y1="0" x2="540.5" y2="398"/>
		<line class="st11" x1="517" y1="0" x2="517" y2="398"/>
		<line class="st11" x1="470" y1="0" x2="470" y2="398"/>
		<line class="st11" x1="446.5" y1="0" x2="446.5" y2="398"/>
		<line class="st11" x1="423" y1="0" x2="423" y2="398"/>
		<line class="st11" x1="376" y1="0" x2="376" y2="398"/>
		<line class="st11" x1="352.5" y1="0" x2="352.5" y2="398"/>
		<line class="st11" x1="329" y1="0" x2="329" y2="398"/>
		<line class="st12" x1="282" y1="0" x2="282" y2="398"/>
		<line class="st11" x1="258.5" y1="0" x2="258.5" y2="398"/>
		<line class="st11" x1="211.5" y1="0" x2="211.5" y2="398"/>
		<line class="st11" x1="188" y1="0" x2="188" y2="398"/>
		<line class="st11" x1="493.5" y1="0" x2="493.5" y2="398"/>
		<line class="st11" x1="399.5" y1="0" x2="399.5" y2="398"/>
		<line class="st11" x1="305.5" y1="0" x2="305.5" y2="398"/>
		<line class="st11" x1="235" y1="0" x2="235" y2="398"/>
		<line class="st11" x1="164.5" y1="0" x2="164.5" y2="398"/>
		<line class="st11" x1="141" y1="0" x2="141" y2="398"/>
		<line class="st11" x1="117.5" y1="0" x2="117.5" y2="398"/>
		<line class="st11" x1="94" y1="0" x2="94" y2="398"/>
		<line class="st11" x1="70.5" y1="0" x2="70.5" y2="398"/>
		<line class="st11" x1="47" y1="0" x2="47" y2="398"/>
		<line class="st11" x1="23.5" y1="0" x2="23.5" y2="398"/>
		<line class="st11" x1="0" y1="0" x2="564" y2="0"/>
		<line class="st11" x1="0" y1="16.6" x2="564" y2="16.6"/>
		<line class="st11" x1="0" y1="49.8" x2="564" y2="49.8"/>
		<line class="st11" x1="0" y1="66.3" x2="564" y2="66.3"/>
		<line class="st11" x1="0" y1="99.5" x2="564" y2="99.5"/>
		<line class="st11" x1="0" y1="116.1" x2="564" y2="116.1"/>
		<line class="st11" x1="0" y1="149.2" x2="564" y2="149.2"/>
		<line class="st11" x1="0" y1="165.8" x2="564" y2="165.8"/>
		<line class="st12" x1="0" y1="199" x2="564" y2="199"/>
		<line class="st11" x1="0" y1="215.6" x2="564" y2="215.6"/>
		<line class="st11" x1="0" y1="232.2" x2="564" y2="232.2"/>
		<line class="st11" x1="0" y1="265.3" x2="564" y2="265.3"/>
		<line class="st11" x1="0" y1="281.9" x2="564" y2="281.9"/>
		<line class="st11" x1="0" y1="33.2" x2="564" y2="33.2"/>
		<line class="st11" x1="0" y1="82.9" x2="564" y2="82.9"/>
		<line class="st11" x1="0" y1="132.7" x2="564" y2="132.7"/>
		<line class="st11" x1="0" y1="182.4" x2="564" y2="182.4"/>
		<line class="st11" x1="0" y1="248.8" x2="564" y2="248.8"/>
		<line class="st11" x1="0" y1="298.5" x2="564" y2="298.5"/>
		<line class="st11" x1="0" y1="315.1" x2="564" y2="315.1"/>
		<line class="st11" x1="0" y1="331.7" x2="564" y2="331.7"/>
		<line class="st11" x1="0" y1="348.2" x2="564" y2="348.2"/>
		<line class="st11" x1="0" y1="364.8" x2="564" y2="364.8"/>
		<line class="st11" x1="0" y1="381.4" x2="564" y2="381.4"/>
		<line class="st11" x1="0" y1="398" x2="564" y2="398"/>
	</g>
</g>
<rect x="1.3" class="st13" width="554.4" height="398"/>
<rect x="-10.5" y="-11" class="st13" width="585" height="420"/>
<g>
	<g>
		<path class="st14" d="M225.7,182.4c0.1-0.1,0.3-0.5,0.7-1c0.8-1,2.1-2.9,3.5-4.9c1.5-2.1,3-4.2,4-5.5c1.4-1.9,2.8-3.8,4.2-5.7
			c0.7-0.8,1.4-1.7,2.2-2.4c0.8-0.9,1.7-1.6,2.8-2.2l0,0c2.3-1.4,4.9-1.9,7.8-1.3c2.4,0.5,4.5,1.7,6.1,3.8c0.9,1.3,1.7,2.7,2.6,4
			l0,0c0.2-0.3,0.5-0.7,0.7-0.9c0.5-0.6,0.9-1.3,1.4-1.9l2.3-3c0-0.1-0.1-0.1-0.1-0.1c-3.1-5.8-9.1-9.8-15.9-9.9c-0.1,0-0.2,0-0.3,0
			c-5.7,0-10.8,2.7-14.3,7c-0.5,0.5-0.8,1-1.2,1.5c-0.5,0.7-1,1.4-1.5,2.1c-0.8,1.2-1.6,2.2-2.4,3.4c0,0.1-0.6,0.8-1.3,1.9
			c-2.4,3.3-7.2,10-7.8,10.7c-0.3,0.5-0.8,0.9-1.2,1.4c-0.3,0.3-0.7,0.7-1,1c-2,1.6-4.5,2.6-7.2,2.7c-0.7,0-1.4,0-2.1-0.1
			c-1.3-0.2-2.6-0.6-3.6-1.2h-0.1c-0.2-0.1-0.3-0.2-0.6-0.3c-0.1-0.1-0.2-0.1-0.3-0.2l-0.1-0.1c-0.2-0.2-0.5-0.3-0.8-0.6
			c0,0-0.1,0-0.1-0.1c-0.2-0.2-0.5-0.3-0.7-0.6c-0.1-0.1-0.1-0.1-0.2-0.2c-0.1-0.1-0.2-0.2-0.2-0.2c-1.6-1.9-2.8-4.2-3-6.8
			c-0.1-1.3-0.1-2.6,0.1-3.7c0-0.1,0-0.2,0.1-0.2c0-0.2,0.1-0.3,0.1-0.6c0-0.1,0.1-0.3,0.1-0.5c0-0.1,0.1-0.2,0.1-0.3
			c0.1-0.2,0.1-0.3,0.2-0.5c1.4-3.1,4.2-5.6,7.5-6.6c0.2-0.1,0.5-0.1,0.7-0.2c0.1,0,0.1,0,0.1,0c0.1,0,0.2,0,0.3-0.1
			c0.7-0.1,1.5-0.2,2.2-0.2c0.8,0,1.5,0.1,2.2,0.2c0.1,0,0.1,0,0.2,0c0.1,0,0.1,0,0.2,0.1c1.3,0.2,2.4,0.8,3.5,1.4
			c0.3,0.2,0.7,0.5,1,0.7c1.7,1.3,3.4,2.7,4.8,4.4l4-5.4c-0.8-1.4-1.9-2.7-3-3.8c-2.2-2.2-5-3.8-8-4.8c0,0-0.1,0-0.2,0
			c-0.2,0-0.3-0.1-0.5-0.1c-1.3-0.3-2.7-0.5-4-0.5c-0.2,0-0.5,0-0.7,0c-0.5,0-0.8,0-1.3,0.1c-0.1,0-0.2,0-0.5,0c-0.1,0-0.2,0-0.2,0
			c-1.3,0.2-2.6,0.6-3.7,1c-0.2,0.1-0.6,0.2-0.8,0.3c-0.1,0-0.2,0.1-0.3,0.1s-0.2,0.1-0.3,0.1c-1.2,0.6-2.3,1.3-3.4,2.2
			c-0.2,0.1-0.3,0.3-0.6,0.5v-0.6c0-0.1,0-33.6,0-33.6c-2.7,0-5.2,0-7.9,0c0,0,0,49.6,0,49.8l0,0l0,0c0.3,9.1,6.9,16.6,15.4,18.5
			h0.1c0.1,0,0.2,0,0.5,0.1c0.9,0.2,1.9,0.3,2.8,0.3c0,0,0,0,0.1,0c0.1,0,0.2,0,0.3,0c0.2,0,0.5,0,0.7,0c0.3,0,0.7,0,1,0
			C216.9,190.4,222.2,187.3,225.7,182.4L225.7,182.4z"/>
		<path class="st14" d="M290.5,162.6c0.7,0.6,5.5,7.2,8.9,11.9l4.4-7.2c-2.9-4-6.8-9.2-7.9-10.1c-4-3.5-8.5-4.7-13.6-3.4
			c-3.5,0.9-6.2,3-8.4,5.9c-4.2,5.7-8.5,11.3-12.8,17c-1,1.4-2.1,2.9-3.6,4c-6.3,4.8-15.4,2.3-18.3-5c-0.1-0.1-0.1-0.2-0.2-0.5
			c-1.7,2.3-3.4,4.5-5.1,6.9c0.9,1.4,2,2.6,3.1,3.6c3.5,3,7.5,4.7,12,5c2.9,0.2,5.6-0.3,8.3-1.4c2.8-1.2,5.2-2.7,7.2-5
			c1-1.2,11.2-14.9,15.4-20.5C282.4,160.1,287.3,159.6,290.5,162.6z"/>
		<path class="st14" d="M359.2,150.4c0,0.2-0.1,19.2,0,25c0,2.4-0.9,4.3-2.9,5.7c-3.7,2.7-9.6,2.6-13.2-0.3
			c-1.5-1.2-2.3-2.8-2.3-4.8c0-3.5,0-7.1,0-10.6c0-0.6,0-1.3-0.1-1.9c-0.9-6.3-5.9-11-12.4-11.5c-3.5-0.3-6.6,0.7-9.4,2.9
			c-1.9,1.4-3,3.3-4.2,5.2c-2.3,3.7-18.4,29.6-19,30.4c-1.5,2.1-3.5,3.6-6.1,4.2c-0.8,0.2-2.6,0.3-2.6,0.3h-8.5v7.3h8.5
			c0.9,0,2-0.1,2.9-0.2c4.7-0.8,8.5-3.3,11.4-6.9c1-1.4,18.4-29.4,20.4-32.5c1.3-2.1,4-3.1,6.4-2.6c2.8,0.7,4.7,3.1,4.7,6.1
			c0,3.8,0,7.7,0,11.5c0,0.3,0,0.7,0.1,1c0.7,3.3,2.4,6.1,5,8c6.3,5,15,5.5,21.9,1.3c3.3-2,5.6-4.9,6.6-8.6c0.2-0.9,0.3-1.9,0.5-2.8
			c0-8.6,0-17.4,0-26C364.6,150.4,361.9,150.4,359.2,150.4z"/>
	</g>
	<g>
		<path class="st14" d="M198.9,232.4L198.9,232.4c0-0.1-0.1-0.1-0.1-0.2l-5.4-7.8h-2.2v12.5h2.4v-8l0,0c0,0.1,0.1,0.1,0.1,0.2
			l5.4,7.8h2.2v-12.5h-2.4V232.4z"/>
		<polygon class="st14" points="212.7,231.7 216.9,231.7 216.9,229.5 212.7,229.5 212.7,226.7 217.8,226.7 217.8,224.4 210.2,224.4 
			210.2,237 218.2,237 218.2,234.8 212.7,234.8 		"/>
		<path class="st14" d="M235.3,224.4h-2.8l-2,3.4c-0.1,0.2-0.2,0.5-0.3,0.7c-0.1-0.2-0.2-0.5-0.3-0.7l-2.1-3.4h-2.8l3.7,6.1l-4,6.4
			h2.8l2.2-3.8c0.1-0.2,0.2-0.5,0.3-0.7c0.1,0.2,0.2,0.5,0.3,0.7l2.2,3.8h2.8l-4-6.4L235.3,224.4z"/>
		<polygon class="st14" points="241.4,226.7 245.3,226.7 245.3,237 247.8,237 247.8,226.7 251.9,226.7 251.9,224.4 241.4,224.4 		
			"/>
		<path class="st14" d="M273.5,224.4h-4.3v12.5h4.3c4,0,6.3-2.4,6.3-6.3C279.7,226.8,277.3,224.5,273.5,224.4z M273.3,234.8h-1.7v-8
			h1.7c2.6,0,4,1.5,4,4C277.3,233.2,275.8,234.8,273.3,234.8z"/>
		<polygon class="st14" points="290.4,231.7 294.6,231.7 294.6,229.5 290.4,229.5 290.4,226.7 295.5,226.7 295.5,224.5 287.9,224.5 
			287.9,237 295.7,237 295.7,234.8 290.4,234.8 		"/>
		<path class="st14" d="M312.8,233.5c0,0-1.3,1.4-3.3,1.4c-2.2,0-4-1.9-4-4.2s1.6-4.1,4-4.1c1.9,0,3.1,1.2,3.1,1.2l0.3,0.3l1.3-1.9
			L314,226c-0.1-0.1-1.6-1.6-4.5-1.6c-3.6,0-6.4,2.8-6.4,6.4c0,3.7,2.8,6.5,6.4,6.5c3,0,4.8-1.9,4.9-2l0.2-0.2l-1.4-1.9L312.8,233.5
			z"/>
		<path class="st14" d="M325.1,224.5l-4.5,12.5h2.6l1.2-3.4h3.8l1.2,3.4h2.6l-4.5-12.5H325.1z M325,231.5l1.2-3.1
			c0-0.1,0.1-0.2,0.1-0.2c0,0.1,0.1,0.2,0.1,0.2l1,3.1H325z"/>
		<path class="st14" d="M343.4,224.5h-4.3V237h4.3c4,0,6.3-2.4,6.3-6.3C349.9,226.8,347.4,224.5,343.4,224.5z M343.3,234.8h-1.7v-8
			h1.7c2.6,0,4,1.5,4,4C347.3,233.2,345.9,234.8,343.3,234.8z"/>
		<polygon class="st14" points="360.4,234.8 360.4,231.8 364.6,231.8 364.6,229.5 360.4,229.5 360.4,226.7 365.5,226.7 365.6,224.5 
			357.9,224.5 357.9,237 365.8,237 365.8,234.8 		"/>
	</g>
</g>
</svg>
