<?xml version="1.0" encoding="utf-8"?>
<!-- Generator: Adobe Illustrator 19.1.0, SVG Export Plug-In . SVG Version: 6.00 Build 0)  -->
<svg version="1.1" id="圖層_1" xmlns="http://www.w3.org/2000/svg" xmlns:xlink="http://www.w3.org/1999/xlink" x="0px" y="0px"
	 viewBox="-271 190 20 20" style="enable-background:new -271 190 20 20;" xml:space="preserve">
<style type="text/css">
	.st0{display:none;}
	.st1{display:inline;fill:#717071;}
	.st2{fill:#717071;}
</style>
<g id="圖層_3" class="st0">
	<path class="st1" d="M-536,391.5c-0.4,0-0.7,0.3-0.7,0.7c0,0.4,0.3,0.7,0.7,0.7s0.7-0.3,0.7-0.7
		C-535.3,391.8-535.6,391.5-536,391.5L-536,391.5z M-536,394.4L-536,394.4c-0.4,0-0.7,0.3-0.7,0.7c0,0.4,0.3,0.7,0.7,0.7
		s0.7-0.3,0.7-0.7C-535.3,394.8-535.6,394.4-536,394.4L-536,394.4z M-536,388.5L-536,388.5c-0.4,0-0.7,0.3-0.7,0.7
		c0,0.4,0.3,0.7,0.7,0.7s0.7-0.3,0.7-0.7C-535.3,388.8-535.6,388.5-536,388.5L-536,388.5z M-527.8,388.8L-527.8,388.8h-6.1
		c-0.2,0-0.4,0.2-0.4,0.4c0,0.2,0.2,0.4,0.4,0.4h6.1c0.2,0,0.4-0.2,0.4-0.4C-527.4,389-527.6,388.8-527.8,388.8L-527.8,388.8z
		 M-524.6,384.1L-524.6,384.1h-1.9v-0.4c0-0.2-0.2-0.4-0.4-0.4h-2.2c-0.1-0.5-0.4-0.9-0.7-1.3c-0.5-0.5-1.2-0.8-1.9-0.8l0,0
		c-0.8,0-1.5,0.3-2,0.8c-0.5,0.3-0.8,0.8-0.9,1.3h-2.2c-0.2,0-0.4,0.2-0.4,0.4v0.4h-2c-0.4,0-0.7,0.3-0.7,0.7v14.3
		c0,0.4,0.3,0.7,0.7,0.7h14.5c0.4,0,0.7-0.3,0.7-0.7v-14.3C-523.9,384.4-524.2,384.1-524.6,384.1L-524.6,384.1z M-533.3,382.6
		L-533.3,382.6c0.4-0.4,0.9-0.6,1.4-0.6l0,0c0.5,0,1,0.2,1.4,0.6c0.2,0.2,0.4,0.4,0.4,0.7h-3.6C-533.6,383-533.4,382.8-533.3,382.6
		L-533.3,382.6z M-536.4,384.1L-536.4,384.1h9v1.3h-9V384.1L-536.4,384.1z M-525.3,398.4L-525.3,398.4h-13.2v-12.9h1.2v0.4
		c0,0.2,0.2,0.4,0.4,0.4h9.9c0.2,0,0.4-0.2,0.4-0.4v-0.4h1.2L-525.3,398.4L-525.3,398.4z M-527.8,394.7L-527.8,394.7h-6.1
		c-0.2,0-0.4,0.2-0.4,0.4c0,0.2,0.2,0.4,0.4,0.4h6.1c0.2,0,0.4-0.2,0.4-0.4C-527.4,394.9-527.6,394.7-527.8,394.7L-527.8,394.7z
		 M-527.8,391.8L-527.8,391.8h-6.1c-0.2,0-0.4,0.2-0.4,0.4c0,0.2,0.2,0.4,0.4,0.4h6.1c0.2,0,0.4-0.2,0.4-0.4
		C-527.4,392-527.6,391.8-527.8,391.8L-527.8,391.8z"/>
</g>
<g id="圖層_2" class="st0">
	<path class="st1" d="M-525.5,394.7l3,3c0.3,0.3,0.3,0.7,0,1c-0.3,0.3-0.7,0.3-1,0l-3-3c-0.6,0.5-1.2,0.9-2,1.2
		c-0.9,0.4-1.9,0.6-2.9,0.6c-2.2,0-4.4-1-5.8-2.7c-0.7-0.9,0.4-1.7,1.2-0.7c1.2,1.3,2.8,2,4.6,2c0.9,0,1.7-0.2,2.4-0.5
		c0.8-0.3,1.4-0.8,2-1.3l0,0l0,0c0.6-0.6,1-1.3,1.4-2c0.3-0.7,0.5-1.5,0.5-2.4c0-0.8-0.2-1.6-0.5-2.4l0,0c-0.3-0.8-0.8-1.4-1.3-2
		l0,0c-0.6-0.6-1.3-1-2-1.3s-1.5-0.5-2.4-0.5c-2.6-0.2-4.8,1.4-5.7,3.6c-0.2,0.2-0.4,0.4-0.7,0.4l0,0c-0.2,0-0.5-0.1-0.6-0.3
		c-0.1-0.2-0.1-0.4,0-0.7c1.2-2.7,3.9-4.5,7-4.5c1,0,2,0.2,2.9,0.6l0,0c0.9,0.4,1.8,1,2.5,1.7l0,0c0.7,0.7,1.2,1.5,1.6,2.4l0,0
		c0.4,0.9,0.6,1.9,0.6,2.9s-0.2,2-0.6,2.9C-524.6,393.4-525,394.1-525.5,394.7L-525.5,394.7z M-541.1,391.7L-541.1,391.7
		c-0.2,0-0.4-0.2-0.4-0.4c0-0.2,0.2-0.4,0.4-0.4h3.1l1.8-3.1c0.1-0.2,0.4-0.3,0.6-0.1c0.1,0,0.1,0.1,0.1,0.1l1.8,2.9l0.9-0.9
		c0.2-0.2,0.4-0.2,0.6,0l0.1,0.1l1,2.1l1.3-5.5c0.1-0.2,0.3-0.4,0.5-0.3c0.1,0,0.1,0.1,0.2,0.1l1.9,1.9c0.2,0.2,0.2,0.4,0,0.6
		c-0.2,0.2-0.4,0.2-0.6,0l-1.4-1.4l-1.4,5.8c0,0.1-0.1,0.2-0.2,0.3c-0.2,0.1-0.5,0-0.6-0.2l-1.3-2.6l-0.8,0.9l-0.1,0.1
		c-0.2,0.1-0.5,0.1-0.6-0.1l-1.6-2.8l-1.6,2.7c-0.1,0.1-0.2,0.2-0.4,0.2H-541.1L-541.1,391.7z"/>
</g>
<path class="st2" d="M-262,197.8c0-0.3-0.1-0.5-0.2-0.8c-0.1-0.3-0.3-0.6-0.5-0.9l-0.1,0.1c-0.7,0.6-1.7,0.8-2.5,0.4
	c-0.5-0.3-1-0.8-1.2-1.3v0l0-0.1l0,0v0c-0.3-0.6-0.4-1.4-0.8-2c0-0.1-0.1-0.1-0.1-0.2c0-0.2,0.2-0.4,0.4-0.4c0.4,0,0.8-0.1,1.2-0.2
	c1-0.2,1.8-0.4,2.8,0.2c1,0.6,1.3,1.9,0.8,2.9c0.3,0.3,0.5,0.7,0.7,1.1c0.1-0.3,0.3-0.6,0.5-0.9c-0.2-0.3-0.3-0.6-0.4-0.9
	c-0.3-1.3,0.2-2.6,1.4-3.4c1.3-0.8,2.6-0.6,4-0.3c0.7,0.1,1.3,0.3,1.9,0.3c0.2,0,0.4,0.2,0.4,0.4c0,0.1,0,0.1-0.1,0.2
	c-0.3,0.5-0.5,1.1-0.7,1.8l0,0c-0.4,1.4-0.9,2.6-2.3,3.3c-1.2,0.6-2.6,0.4-3.6-0.5c-0.1-0.1-0.1-0.1-0.2-0.2
	c-0.3,0.4-0.5,0.9-0.6,1.5c1.4,0.1,2.6,0.7,3.6,1.7c1,1,1.7,2.5,1.7,4c0,1.6-0.6,3-1.7,4c-1,1-2.5,1.7-4,1.7c-1.6,0-3-0.6-4-1.7
	c-1-1-1.7-2.5-1.7-4C-267.2,200.6-264.9,198.1-262,197.8L-262,197.8z M-258.3,200.7L-258.3,200.7c-0.4,0.3-0.8,0.5-1.2,0.7
	c-0.5,0.2-1,0.3-1.6,0.4v1.4h3.9C-257.3,202.2-257.7,201.3-258.3,200.7L-258.3,200.7z M-257.2,204L-257.2,204h-3.9v1.4
	c0.6,0,1.1,0.2,1.6,0.4c0.4,0.2,0.8,0.4,1.2,0.7C-257.7,205.7-257.3,204.9-257.2,204L-257.2,204z M-264.7,206.4L-264.7,206.4
	c0.4-0.3,0.8-0.5,1.2-0.7c0.5-0.2,1-0.3,1.6-0.4V204h-3.9C-265.7,204.9-265.3,205.7-264.7,206.4L-264.7,206.4z M-265.8,203.1
	L-265.8,203.1h3.9v-1.4c-0.6,0-1.1-0.2-1.6-0.4c-0.4-0.2-0.8-0.4-1.2-0.7C-265.3,201.3-265.7,202.2-265.8,203.1L-265.8,203.1z
	 M-258.9,200.1L-258.9,200.1c-0.6-0.5-1.4-0.8-2.2-0.8v1.6c0.5,0,0.9-0.1,1.3-0.3C-259.5,200.4-259.2,200.3-258.9,200.1
	L-258.9,200.1z M-261.9,199.2L-261.9,199.2c-0.8,0.1-1.6,0.4-2.2,0.8c0.3,0.2,0.6,0.3,0.9,0.5c0.4,0.2,0.8,0.3,1.3,0.3V199.2
	L-261.9,199.2z M-264.1,207L-264.1,207c0.6,0.5,1.4,0.8,2.2,0.8v-1.6c-0.5,0-0.9,0.1-1.3,0.3C-263.5,206.6-263.8,206.8-264.1,207
	L-264.1,207z M-261.1,207.8L-261.1,207.8c0.8-0.1,1.6-0.4,2.2-0.8c-0.3-0.2-0.6-0.4-0.9-0.5c-0.4-0.2-0.8-0.3-1.3-0.3V207.8
	L-261.1,207.8z M-263,195.3L-263,195.3L-263,195.3L-263,195.3L-263,195.3L-263,195.3L-263,195.3L-263,195.3L-263,195.3
	c0.4-0.7,0.3-1.6-0.3-2h0c-0.7-0.4-1.4-0.3-2.1-0.1c-0.3,0.1-0.5,0.1-0.8,0.1c0.2,0.5,0.3,1,0.5,1.5l0,0.1c0.2,0.4,0.5,0.8,0.9,1
	C-264.2,196.2-263.4,195.9-263,195.3L-263,195.3z M-259.9,195.7L-259.9,195.7L-259.9,195.7c0.1,0.1,0.1,0.2,0.2,0.3
	c0.7,0.7,1.7,0.8,2.6,0.4c1.2-0.6,1.5-1.7,1.9-2.8l0,0c0.1-0.5,0.3-0.9,0.5-1.4c-0.5-0.1-0.9-0.2-1.4-0.3c-1.2-0.2-2.3-0.5-3.4,0.2
	c-0.8,0.5-1.2,1.5-1,2.5c0,0.1,0.1,0.3,0.1,0.4c0.9-0.8,2-1.3,3.3-1.3c0.2,0,0.4,0.2,0.4,0.4s-0.2,0.4-0.4,0.4
	C-258.2,194.5-259.2,194.9-259.9,195.7L-259.9,195.7z"/>
</svg>
