<?xml version="1.0" encoding="utf-8"?>
<!-- Generator: Adobe Illustrator 19.1.0, SVG Export Plug-In . SVG Version: 6.00 Build 0)  -->
<svg version="1.1" id="圖層_1" xmlns="http://www.w3.org/2000/svg" xmlns:xlink="http://www.w3.org/1999/xlink" x="0px" y="0px"
	 viewBox="-271 190 20 20" style="enable-background:new -271 190 20 20;" xml:space="preserve">
<style type="text/css">
	.st0{display:none;}
	.st1{display:inline;fill:#717071;}
	.st2{fill:#717071;}
</style>
<g id="圖層_1_1_" class="st0">
	<path class="st1" d="M-532.8,392c0-0.2-0.2-0.4-0.4-0.4h-2.8c-0.2,0-0.4,0.2-0.4,0.4s0.2,0.4,0.4,0.4h2.7
		C-533,392.4-532.8,392.2-532.8,392L-532.8,392z M-527.8,390.9L-527.8,390.9c-0.4-0.4-1-0.7-1.7-0.7s-1.2,0.3-1.7,0.7
		c-0.4,0.4-0.7,1-0.7,1.7c0,0.3,0.1,0.6,0.2,0.9l-1.5,2.6c-0.1,0.1-0.1,0.2-0.1,0.3c0.1,0.2,0.3,0.4,0.5,0.3l1.2-0.3l0.3,1.2
		c0,0.1,0.1,0.2,0.2,0.3c0.2,0.1,0.5,0,0.6-0.2l1-1.7l1,1.6c0,0.1,0.1,0.2,0.3,0.2c0.2,0.1,0.5-0.1,0.5-0.3l0.3-1.2l1.2,0.3
		c0.1,0,0.2,0,0.3-0.1c0.2-0.1,0.3-0.4,0.1-0.6l-1.5-2.6c0.1-0.3,0.2-0.6,0.2-0.9C-527.1,391.9-527.4,391.3-527.8,390.9
		L-527.8,390.9z M-529.9,394.9L-529.9,394.9l-0.8,1.4l-0.2-0.6c-0.1-0.2-0.3-0.4-0.5-0.3l0,0l-0.6,0.2l0.8-1.4l0,0
		C-530.8,394.6-530.4,394.8-529.9,394.9L-529.9,394.9L-529.9,394.9L-529.9,394.9L-529.9,394.9z M-530.8,393.4L-530.8,393.4
		L-530.8,393.4L-530.8,393.4c-0.2-0.3-0.2-0.5-0.2-0.8c0-0.4,0.2-0.8,0.5-1.1c0.3-0.3,0.7-0.5,1.1-0.5c0.4,0,0.8,0.2,1.1,0.5
		c0.3,0.3,0.5,0.7,0.5,1.1c0,0.4-0.2,0.8-0.4,1.1l0,0C-529.1,394.3-530.3,394.2-530.8,393.4L-530.8,393.4z M-527,395.6L-527,395.6
		l-0.6-0.2c-0.2-0.1-0.5,0.1-0.5,0.3l-0.2,0.6l-0.8-1.4l0,0l0,0l0,0l0,0l0,0c0.5-0.1,0.9-0.3,1.3-0.7l0,0L-527,395.6L-527,395.6z
		 M-524.1,386.7L-524.1,386.7l-5.1-5.1c-0.1-0.1-0.3-0.2-0.5-0.2h-8.3c-0.5,0-1,0.2-1.3,0.6c-0.4,0.3-0.6,0.8-0.6,1.3v14.5
		c0,0.5,0.2,1,0.5,1.3l0,0l0,0c0.4,0.3,0.9,0.5,1.4,0.5h12.2c0.5,0,1-0.2,1.3-0.5l0,0l0,0c0.3-0.3,0.5-0.8,0.5-1.3v-10.6
		C-523.9,387-524,386.8-524.1,386.7L-524.1,386.7z M-529.3,383.5L-529.3,383.5l3.3,3.3h-2.5c-0.2,0-0.4-0.1-0.5-0.2l0,0
		c-0.1-0.1-0.2-0.3-0.2-0.5L-529.3,383.5L-529.3,383.5z M-525.3,397.7L-525.3,397.7c0,0.1-0.1,0.2-0.1,0.3c-0.1,0.1-0.2,0.1-0.3,0.1
		H-538c-0.1,0-0.2-0.1-0.3-0.1c-0.1-0.1-0.1-0.2-0.1-0.3v-14.4c0-0.1,0.1-0.2,0.1-0.3c0.1-0.1,0.2-0.2,0.3-0.2h7.9v3.2
		c0,0.4,0.2,0.8,0.4,1.1l0,0c0.3,0.3,0.7,0.5,1.1,0.5h3.2L-525.3,397.7L-525.3,397.7z M-536,388.6L-536,388.6L-536,388.6L-536,388.6
		L-536,388.6L-536,388.6L-536,388.6L-536,388.6L-536,388.6L-536,388.6L-536,388.6L-536,388.6L-536,388.6L-536,388.6L-536,388.6
		L-536,388.6L-536,388.6L-536,388.6L-536,388.6L-536,388.6L-536,388.6L-536,388.6L-536,388.6L-536,388.6L-536,388.6L-536,388.6
		L-536,388.6L-536,388.6L-536,388.6L-536,388.6L-536,388.6L-536,388.6L-536,388.6L-536,388.6L-536,388.6L-536,388.6L-536,388.6
		L-536,388.6L-536,388.6L-536,388.6L-536,388.6L-536,388.6L-536,388.6L-536,388.6L-536,388.6L-536,388.6L-536,388.6L-536,388.6
		L-536,388.6L-536,388.6L-536,388.6L-536,388.6L-536,388.6L-536,388.6L-536,388.6L-536,388.6L-536,388.6L-536,388.6L-536,388.6
		L-536,388.6L-536,388.6L-536,388.6L-536,388.6L-536,388.6L-536,388.6L-536,388.6L-536,388.6L-536,388.6L-536,388.6L-536,388.6
		L-536,388.6L-536,388.6L-536,388.6L-536,388.6L-536,388.6L-536,388.6L-536,388.6L-536,388.6L-536,388.6L-536,388.6L-536,388.6
		L-536,388.6L-536,388.6L-536,388.6L-536,388.6L-536,388.6L-536,388.6L-536,388.6L-536,388.6L-536,388.6L-536,388.6L-536,388.6
		L-536,388.6L-536,388.6L-536,388.6L-536,388.6L-536,388.6L-536,388.6L-536,388.6L-536,388.6L-536,388.6L-536,388.6L-536,388.6
		L-536,388.6L-536,388.6L-536,388.6L-536,388.6L-536,388.6L-536,388.6L-536,388.6L-536,388.6L-536,388.6L-536,388.6L-536,388.6
		L-536,388.6L-536,388.6L-536,388.6L-536,388.6L-536,388.6L-536,388.6L-536,388.6L-536,388.6L-536,388.6L-536,388.6L-536,388.6
		L-536,388.6L-536,388.6L-536,388.6L-536,388.6L-536,388.6L-536,388.6L-536,388.6L-536,388.6L-536,388.6L-536,388.6L-536,388.6
		L-536,388.6L-536,388.6L-536,388.6L-536,388.6L-536,388.6L-536,388.6L-536,388.6L-536,388.6L-536,388.6L-536,388.6L-536,388.6h8
		l0,0l0,0l0,0l0,0l0,0l0,0l0,0l0,0l0,0l0,0l0,0l0,0l0,0l0,0l0,0l0,0l0,0l0,0l0,0l0,0l0,0l0,0l0,0l0,0l0,0l0,0l0,0l0,0l0,0l0,0l0,0
		l0,0l0,0l0,0l0,0l0,0l0,0l0,0l0,0l0,0l0,0l0,0l0,0l0,0l0,0l0,0l0,0l0,0l0,0l0,0l0,0l0,0l0,0l0,0l0,0l0,0l0,0l0,0l0,0l0,0l0,0l0,0
		l0,0l0,0l0,0l0,0l0,0l0,0l0,0l0,0l0,0l0,0l0,0l0,0l0,0l0,0l0,0l0,0l0,0l0,0l0,0l0,0l0,0l0,0l0,0l0,0l0,0l0,0l0,0l0,0l0,0l0,0l0,0
		l0,0l0,0l0,0l0,0l0,0l0,0l0,0l0,0l0,0l0,0l0,0l0,0l0,0l0,0l0,0l0,0l0,0l0,0l0,0l0,0l0,0l0,0l0,0l0,0l0,0l0,0l0,0l0,0l0,0l0,0l0,0
		l0,0l0,0l0,0l0,0l0,0l0,0l0,0l0,0l0,0l0,0l0,0l0,0l0,0l0,0l0,0l0,0l0,0l0,0l0,0l0,0l0,0H-536L-536,388.6L-536,388.6z M-536,386.5
		L-536,386.5h4.5c0.2,0,0.4-0.2,0.4-0.4s-0.2-0.4-0.4-0.4h-4.5c-0.2,0-0.4,0.2-0.4,0.4S-536.2,386.5-536,386.5L-536,386.5z"/>
</g>
<g id="圖層_2" class="st0">
	<path class="st1" d="M-525.5,394.7l3,3c0.3,0.3,0.3,0.7,0,1c-0.3,0.3-0.7,0.3-1,0l-3-3c-0.6,0.5-1.2,0.9-2,1.2
		c-0.9,0.4-1.9,0.6-2.9,0.6c-2.2,0-4.4-1-5.8-2.7c-0.7-0.9,0.4-1.7,1.2-0.7c1.2,1.3,2.8,2,4.6,2c0.9,0,1.7-0.2,2.4-0.5
		c0.8-0.3,1.4-0.8,2-1.3l0,0l0,0c0.6-0.6,1-1.3,1.4-2c0.3-0.7,0.5-1.5,0.5-2.4c0-0.8-0.2-1.6-0.5-2.4l0,0c-0.3-0.8-0.8-1.4-1.3-2
		l0,0c-0.6-0.6-1.3-1-2-1.3s-1.5-0.5-2.4-0.5c-2.6-0.2-4.8,1.4-5.7,3.6c-0.2,0.2-0.4,0.4-0.7,0.4l0,0c-0.2,0-0.5-0.1-0.6-0.3
		c-0.1-0.2-0.1-0.4,0-0.7c1.2-2.7,3.9-4.5,7-4.5c1,0,2,0.2,2.9,0.6l0,0c0.9,0.4,1.8,1,2.5,1.7l0,0c0.7,0.7,1.2,1.5,1.6,2.4l0,0
		c0.4,0.9,0.6,1.9,0.6,2.9s-0.2,2-0.6,2.9C-524.6,393.4-525,394.1-525.5,394.7L-525.5,394.7z M-541.1,391.7L-541.1,391.7
		c-0.2,0-0.4-0.2-0.4-0.4c0-0.2,0.2-0.4,0.4-0.4h3.1l1.8-3.1c0.1-0.2,0.4-0.3,0.6-0.1c0.1,0,0.1,0.1,0.1,0.1l1.8,2.9l0.9-0.9
		c0.2-0.2,0.4-0.2,0.6,0l0.1,0.1l1,2.1l1.3-5.5c0.1-0.2,0.3-0.4,0.5-0.3c0.1,0,0.1,0.1,0.2,0.1l1.9,1.9c0.2,0.2,0.2,0.4,0,0.6
		c-0.2,0.2-0.4,0.2-0.6,0l-1.4-1.4l-1.4,5.8c0,0.1-0.1,0.2-0.2,0.3c-0.2,0.1-0.5,0-0.6-0.2l-1.3-2.6l-0.8,0.9l-0.1,0.1
		c-0.2,0.1-0.5,0.1-0.6-0.1l-1.6-2.8l-1.6,2.7c-0.1,0.1-0.2,0.2-0.4,0.2H-541.1L-541.1,391.7z"/>
</g>
<path class="st2" d="M-258,196.2c0.1-0.2,0.1-0.5,0-0.7c-0.1-0.2-0.3-0.4-0.6-0.5l0,0v0c-0.1-0.1-0.3-0.1-0.5-0.2l0,0
	c-0.1,0-0.3-0.1-0.4-0.1c0,0.1-0.1,0.3-0.1,0.4c0,0.2-0.1,0.4-0.1,0.5v0l0,0l0,0c0,0.3,0,0.6,0.2,0.8c0.1,0.2,0.3,0.3,0.6,0.4
	C-258.6,196.8-258.2,196.6-258,196.2L-258,196.2z M-264.7,198.8L-264.7,198.8c0-0.3,0.3-0.6,0.6-0.6c0.3,0,0.6,0.3,0.6,0.6v5.9
	c0,0.3-0.3,0.6-0.6,0.6c-0.3,0-0.6-0.3-0.6-0.6V198.8L-264.7,198.8z M-267.2,201.2L-267.2,201.2c0.1,0,0.2-0.1,0.2-0.2v-1.3
	c0-0.1,0-0.1-0.1-0.2c0,0-0.1-0.1-0.2-0.1h-1.4h-0.8v1.8H-267.2L-267.2,201.2z M-270.6,198.8L-270.6,198.8c0-0.3,0.2-0.6,0.6-0.6
	h1.4h1.4c0.8,0,1.4,0.6,1.4,1.4v1.3c0,0.3-0.1,0.6-0.3,0.8c0.2,0.2,0.3,0.5,0.3,0.8v1.3c0,0.4-0.2,0.7-0.4,1c-0.3,0.3-0.6,0.4-1,0.4
	h-1.4h-1.4c-0.3,0-0.6-0.3-0.6-0.6C-270.6,202.7-270.6,200.8-270.6,198.8L-270.6,198.8z M-267.2,202.3L-267.2,202.3h-2.2v1.8h0.8
	h1.4c0.1,0,0.2-0.1,0.2-0.2v-1.3C-266.9,202.4-267.1,202.3-267.2,202.3L-267.2,202.3z M-261.2,198.2L-261.2,198.2h2
	c0.2,0,0.5,0.1,0.6,0.2c0.2-0.4,0.1-0.7,0.1-0.9c-0.1,0-0.1,0-0.1,0c-0.2,0-0.3,0-0.5,0h0l0,0l0,0l0,0c-0.5-0.1-0.9-0.3-1.1-0.7
	c-0.2-0.4-0.3-0.8-0.3-1.2v0l0,0l0,0c0-0.2,0.1-0.4,0.1-0.6c0.1-0.3,0.1-0.6,0.1-0.8c0-0.2,0.2-0.4,0.4-0.4c0.1,0,0.1,0,0.2,0.1
	c0.2,0.1,0.5,0.2,0.8,0.3h0c0.2,0.1,0.4,0.1,0.6,0.2h0l0,0l0,0c0.4,0.2,0.7,0.5,0.9,0.9c0.2,0.5,0.2,1,0,1.5
	c-0.1,0.2-0.2,0.3-0.4,0.5c0.1,0.1,0.1,0.3,0.1,0.5c0.1-0.1,0.2-0.2,0.3-0.3c0-0.1,0-0.1,0.1-0.2l0,0c0.3-0.9,1.1-1.6,2.1-1.6
	c1.1,0,1.9,0.6,2.6,1.3c0.3,0.3,0.7,0.6,1.1,0.8c0.2,0.1,0.2,0.3,0.1,0.5c0,0.1-0.1,0.1-0.1,0.1c-0.4,0.2-0.7,0.5-1.1,0.8
	c-0.8,0.7-1.5,1.3-2.6,1.2c-1,0-1.8-0.7-2.1-1.6l0,0c0-0.1-0.1-0.2-0.1-0.3c-0.1,0.1-0.2,0.3-0.3,0.4c-0.1,0.1-0.1,0.2-0.2,0.3
	c0.1,0.2,0.2,0.4,0.2,0.7v4.3c0,0.8-0.6,1.4-1.4,1.4h-2c-0.8,0-1.4-0.6-1.4-1.4v-4.3C-262.6,198.8-261.9,198.2-261.2,198.2
	L-261.2,198.2z M-259.2,199.4L-259.2,199.4h-2c-0.1,0-0.1,0-0.2,0.1v0c0,0-0.1,0.1-0.1,0.2v4.3c0,0.1,0,0.1,0.1,0.2
	c0,0,0.1,0.1,0.2,0.1h2c0.1,0,0.1,0,0.2-0.1c0,0,0.1-0.1,0.1-0.2v-4.3c0-0.1,0-0.1-0.1-0.2C-259,199.4-259.1,199.4-259.2,199.4
	L-259.2,199.4z M-256.7,197.8L-256.7,197.8L-256.7,197.8c0,0.2,0,0.4,0.1,0.6l0,0c0.2,0.6,0.7,1.1,1.4,1.1c0.9,0,1.5-0.5,2.1-1.1
	c0.2-0.2,0.5-0.4,0.7-0.6c-0.3-0.2-0.5-0.4-0.7-0.6c-0.6-0.5-1.2-1.1-2.1-1.1c-0.6,0-1.1,0.4-1.3,0.9c0.6,0,1.4,0.3,2.6,1
	c0.2,0.1,0.2,0.3,0.1,0.5c-0.1,0.2-0.3,0.2-0.5,0.1C-255.5,197.9-256.2,197.7-256.7,197.8L-256.7,197.8z"/>
</svg>
