<?xml version="1.0" encoding="utf-8"?>
<!-- Generator: Adobe Illustrator 19.1.0, SVG Export Plug-In . SVG Version: 6.00 Build 0)  -->
<svg version="1.1" id="圖層_1" xmlns="http://www.w3.org/2000/svg" xmlns:xlink="http://www.w3.org/1999/xlink" x="0px" y="0px"
	 viewBox="-271 190 20 20" style="enable-background:new -271 190 20 20;" xml:space="preserve">
<style type="text/css">
	.st0{display:none;}
	.st1{display:inline;fill:#717071;}
	.st2{fill:#717071;}
</style>
<g id="圖層_1_1_" class="st0">
	<path class="st1" d="M-532.8,392c0-0.2-0.2-0.4-0.4-0.4h-2.8c-0.2,0-0.4,0.2-0.4,0.4s0.2,0.4,0.4,0.4h2.7
		C-533,392.4-532.8,392.2-532.8,392L-532.8,392z M-527.8,390.9L-527.8,390.9c-0.4-0.4-1-0.7-1.7-0.7s-1.2,0.3-1.7,0.7
		c-0.4,0.4-0.7,1-0.7,1.7c0,0.3,0.1,0.6,0.2,0.9l-1.5,2.6c-0.1,0.1-0.1,0.2-0.1,0.3c0.1,0.2,0.3,0.4,0.5,0.3l1.2-0.3l0.3,1.2
		c0,0.1,0.1,0.2,0.2,0.3c0.2,0.1,0.5,0,0.6-0.2l1-1.7l1,1.6c0,0.1,0.1,0.2,0.3,0.2c0.2,0.1,0.5-0.1,0.5-0.3l0.3-1.2l1.2,0.3
		c0.1,0,0.2,0,0.3-0.1c0.2-0.1,0.3-0.4,0.1-0.6l-1.5-2.6c0.1-0.3,0.2-0.6,0.2-0.9C-527.1,391.9-527.4,391.3-527.8,390.9
		L-527.8,390.9z M-529.9,394.9L-529.9,394.9l-0.8,1.4l-0.2-0.6c-0.1-0.2-0.3-0.4-0.5-0.3l0,0l-0.6,0.2l0.8-1.4l0,0
		C-530.8,394.6-530.4,394.8-529.9,394.9L-529.9,394.9L-529.9,394.9L-529.9,394.9L-529.9,394.9z M-530.8,393.4L-530.8,393.4
		L-530.8,393.4L-530.8,393.4c-0.2-0.3-0.2-0.5-0.2-0.8c0-0.4,0.2-0.8,0.5-1.1c0.3-0.3,0.7-0.5,1.1-0.5c0.4,0,0.8,0.2,1.1,0.5
		c0.3,0.3,0.5,0.7,0.5,1.1c0,0.4-0.2,0.8-0.4,1.1l0,0C-529.1,394.3-530.3,394.2-530.8,393.4L-530.8,393.4z M-527,395.6L-527,395.6
		l-0.6-0.2c-0.2-0.1-0.5,0.1-0.5,0.3l-0.2,0.6l-0.8-1.4l0,0l0,0l0,0l0,0l0,0c0.5-0.1,0.9-0.3,1.3-0.7l0,0L-527,395.6L-527,395.6z
		 M-524.1,386.7L-524.1,386.7l-5.1-5.1c-0.1-0.1-0.3-0.2-0.5-0.2h-8.3c-0.5,0-1,0.2-1.3,0.6c-0.4,0.3-0.6,0.8-0.6,1.3v14.5
		c0,0.5,0.2,1,0.5,1.3l0,0l0,0c0.4,0.3,0.9,0.5,1.4,0.5h12.2c0.5,0,1-0.2,1.3-0.5l0,0l0,0c0.3-0.3,0.5-0.8,0.5-1.3v-10.6
		C-523.9,387-524,386.8-524.1,386.7L-524.1,386.7z M-529.3,383.5L-529.3,383.5l3.3,3.3h-2.5c-0.2,0-0.4-0.1-0.5-0.2l0,0
		c-0.1-0.1-0.2-0.3-0.2-0.5L-529.3,383.5L-529.3,383.5z M-525.3,397.7L-525.3,397.7c0,0.1-0.1,0.2-0.1,0.3c-0.1,0.1-0.2,0.1-0.3,0.1
		H-538c-0.1,0-0.2-0.1-0.3-0.1c-0.1-0.1-0.1-0.2-0.1-0.3v-14.4c0-0.1,0.1-0.2,0.1-0.3c0.1-0.1,0.2-0.2,0.3-0.2h7.9v3.2
		c0,0.4,0.2,0.8,0.4,1.1l0,0c0.3,0.3,0.7,0.5,1.1,0.5h3.2L-525.3,397.7L-525.3,397.7z M-536,388.6L-536,388.6L-536,388.6L-536,388.6
		L-536,388.6L-536,388.6L-536,388.6L-536,388.6L-536,388.6L-536,388.6L-536,388.6L-536,388.6L-536,388.6L-536,388.6L-536,388.6
		L-536,388.6L-536,388.6L-536,388.6L-536,388.6L-536,388.6L-536,388.6L-536,388.6L-536,388.6L-536,388.6L-536,388.6L-536,388.6
		L-536,388.6L-536,388.6L-536,388.6L-536,388.6L-536,388.6L-536,388.6L-536,388.6L-536,388.6L-536,388.6L-536,388.6L-536,388.6
		L-536,388.6L-536,388.6L-536,388.6L-536,388.6L-536,388.6L-536,388.6L-536,388.6L-536,388.6L-536,388.6L-536,388.6L-536,388.6
		L-536,388.6L-536,388.6L-536,388.6L-536,388.6L-536,388.6L-536,388.6L-536,388.6L-536,388.6L-536,388.6L-536,388.6L-536,388.6
		L-536,388.6L-536,388.6L-536,388.6L-536,388.6L-536,388.6L-536,388.6L-536,388.6L-536,388.6L-536,388.6L-536,388.6L-536,388.6
		L-536,388.6L-536,388.6L-536,388.6L-536,388.6L-536,388.6L-536,388.6L-536,388.6L-536,388.6L-536,388.6L-536,388.6L-536,388.6
		L-536,388.6L-536,388.6L-536,388.6L-536,388.6L-536,388.6L-536,388.6L-536,388.6L-536,388.6L-536,388.6L-536,388.6L-536,388.6
		L-536,388.6L-536,388.6L-536,388.6L-536,388.6L-536,388.6L-536,388.6L-536,388.6L-536,388.6L-536,388.6L-536,388.6L-536,388.6
		L-536,388.6L-536,388.6L-536,388.6L-536,388.6L-536,388.6L-536,388.6L-536,388.6L-536,388.6L-536,388.6L-536,388.6L-536,388.6
		L-536,388.6L-536,388.6L-536,388.6L-536,388.6L-536,388.6L-536,388.6L-536,388.6L-536,388.6L-536,388.6L-536,388.6L-536,388.6
		L-536,388.6L-536,388.6L-536,388.6L-536,388.6L-536,388.6L-536,388.6L-536,388.6L-536,388.6L-536,388.6L-536,388.6L-536,388.6
		L-536,388.6L-536,388.6L-536,388.6L-536,388.6L-536,388.6L-536,388.6L-536,388.6L-536,388.6L-536,388.6L-536,388.6L-536,388.6h8
		l0,0l0,0l0,0l0,0l0,0l0,0l0,0l0,0l0,0l0,0l0,0l0,0l0,0l0,0l0,0l0,0l0,0l0,0l0,0l0,0l0,0l0,0l0,0l0,0l0,0l0,0l0,0l0,0l0,0l0,0l0,0
		l0,0l0,0l0,0l0,0l0,0l0,0l0,0l0,0l0,0l0,0l0,0l0,0l0,0l0,0l0,0l0,0l0,0l0,0l0,0l0,0l0,0l0,0l0,0l0,0l0,0l0,0l0,0l0,0l0,0l0,0l0,0
		l0,0l0,0l0,0l0,0l0,0l0,0l0,0l0,0l0,0l0,0l0,0l0,0l0,0l0,0l0,0l0,0l0,0l0,0l0,0l0,0l0,0l0,0l0,0l0,0l0,0l0,0l0,0l0,0l0,0l0,0l0,0
		l0,0l0,0l0,0l0,0l0,0l0,0l0,0l0,0l0,0l0,0l0,0l0,0l0,0l0,0l0,0l0,0l0,0l0,0l0,0l0,0l0,0l0,0l0,0l0,0l0,0l0,0l0,0l0,0l0,0l0,0l0,0
		l0,0l0,0l0,0l0,0l0,0l0,0l0,0l0,0l0,0l0,0l0,0l0,0l0,0l0,0l0,0l0,0l0,0l0,0l0,0l0,0l0,0H-536L-536,388.6L-536,388.6z M-536,386.5
		L-536,386.5h4.5c0.2,0,0.4-0.2,0.4-0.4s-0.2-0.4-0.4-0.4h-4.5c-0.2,0-0.4,0.2-0.4,0.4S-536.2,386.5-536,386.5L-536,386.5z"/>
</g>
<g id="圖層_3" class="st0">
	<path class="st1" d="M-536,391.5c-0.4,0-0.7,0.3-0.7,0.7c0,0.4,0.3,0.7,0.7,0.7s0.7-0.3,0.7-0.7
		C-535.3,391.8-535.6,391.5-536,391.5L-536,391.5z M-536,394.4L-536,394.4c-0.4,0-0.7,0.3-0.7,0.7c0,0.4,0.3,0.7,0.7,0.7
		s0.7-0.3,0.7-0.7C-535.3,394.8-535.6,394.4-536,394.4L-536,394.4z M-536,388.5L-536,388.5c-0.4,0-0.7,0.3-0.7,0.7
		c0,0.4,0.3,0.7,0.7,0.7s0.7-0.3,0.7-0.7C-535.3,388.8-535.6,388.5-536,388.5L-536,388.5z M-527.8,388.8L-527.8,388.8h-6.1
		c-0.2,0-0.4,0.2-0.4,0.4c0,0.2,0.2,0.4,0.4,0.4h6.1c0.2,0,0.4-0.2,0.4-0.4C-527.4,389-527.6,388.8-527.8,388.8L-527.8,388.8z
		 M-524.6,384.1L-524.6,384.1h-1.9v-0.4c0-0.2-0.2-0.4-0.4-0.4h-2.2c-0.1-0.5-0.4-0.9-0.7-1.3c-0.5-0.5-1.2-0.8-1.9-0.8l0,0
		c-0.8,0-1.5,0.3-2,0.8c-0.5,0.3-0.8,0.8-0.9,1.3h-2.2c-0.2,0-0.4,0.2-0.4,0.4v0.4h-2c-0.4,0-0.7,0.3-0.7,0.7v14.3
		c0,0.4,0.3,0.7,0.7,0.7h14.5c0.4,0,0.7-0.3,0.7-0.7v-14.3C-523.9,384.4-524.2,384.1-524.6,384.1L-524.6,384.1z M-533.3,382.6
		L-533.3,382.6c0.4-0.4,0.9-0.6,1.4-0.6l0,0c0.5,0,1,0.2,1.4,0.6c0.2,0.2,0.4,0.4,0.4,0.7h-3.6C-533.6,383-533.4,382.8-533.3,382.6
		L-533.3,382.6z M-536.4,384.1L-536.4,384.1h9v1.3h-9V384.1L-536.4,384.1z M-525.3,398.4L-525.3,398.4h-13.2v-12.9h1.2v0.4
		c0,0.2,0.2,0.4,0.4,0.4h9.9c0.2,0,0.4-0.2,0.4-0.4v-0.4h1.2L-525.3,398.4L-525.3,398.4z M-527.8,394.7L-527.8,394.7h-6.1
		c-0.2,0-0.4,0.2-0.4,0.4c0,0.2,0.2,0.4,0.4,0.4h6.1c0.2,0,0.4-0.2,0.4-0.4C-527.4,394.9-527.6,394.7-527.8,394.7L-527.8,394.7z
		 M-527.8,391.8L-527.8,391.8h-6.1c-0.2,0-0.4,0.2-0.4,0.4c0,0.2,0.2,0.4,0.4,0.4h6.1c0.2,0,0.4-0.2,0.4-0.4
		C-527.4,392-527.6,391.8-527.8,391.8L-527.8,391.8z"/>
</g>
<path class="st2" d="M-262.9,206.5c-2.5-0.7-4.3-2.9-4.4-5.6c-0.1-3.1,1.6-5.1,3.4-7.1c0.9-1,1.8-2,2.4-3c0.2-0.3,0.6-0.5,1-0.3
	c0.1,0.1,0.2,0.2,0.3,0.3l0,0c0.6,1,1.5,2,2.4,3c1.9,2.1,3.6,4,3.4,7.1c-0.1,2.7-1.9,4.8-4.4,5.6c-0.5,0.2-1.1,0.3-1.7,0.3v0
	c0,1.5-1.3,2.8-2.8,2.8c-0.2,0-0.4-0.2-0.4-0.4c0-0.2,0.2-0.4,0.4-0.4c1,0,1.9-0.9,1.9-1.9v0C-261.8,206.8-262.4,206.7-262.9,206.5
	L-262.9,206.5z M-263.9,200.7L-263.9,200.7c-0.2-0.2-0.2-0.5,0-0.6c0.2-0.2,0.5-0.2,0.6,0l2.1,2.1v-6.6c0-0.2,0.2-0.4,0.4-0.4
	c0.2,0,0.4,0.2,0.4,0.4v4.6l2.1-2.1c0.2-0.2,0.4-0.2,0.6,0c0.2,0.2,0.2,0.4,0,0.6l-2.7,2.7v4c0.4,0,0.8-0.1,1.2-0.2
	c1.9-0.6,3.3-2.2,3.4-4.3c0.1-2.6-1.5-4.3-3.1-6.1c-0.7-0.7-1.4-1.5-1.9-2.3c-0.6,0.8-1.3,1.6-1.9,2.3c-1.6,1.8-3.2,3.5-3.1,6.1
	c0.1,2,1.5,3.7,3.4,4.3c0.4,0.1,0.8,0.2,1.2,0.2v-2L-263.9,200.7L-263.9,200.7z"/>
</svg>
