<?xml version="1.0" encoding="utf-8"?>
<!-- Generator: Adobe Illustrator 19.1.0, SVG Export Plug-In . SVG Version: 6.00 Build 0)  -->
<svg version="1.1" id="圖層_2_1_" xmlns="http://www.w3.org/2000/svg" xmlns:xlink="http://www.w3.org/1999/xlink" x="0px"
	 y="0px" viewBox="-271 190 20 20" style="enable-background:new -271 190 20 20;" xml:space="preserve">
<style type="text/css">
	.st0{fill:#717071;}
</style>
<g>
	<path class="st0" d="M-256.2,199c0-0.2-0.2-0.4-0.4-0.4h-1.2v0.7h1.2C-256.4,199.3-256.2,199.2-256.2,199z"/>
	<path class="st0" d="M-256.2,197c0-0.2-0.2-0.4-0.4-0.4h-1.2v0.7h1.2C-256.4,197.4-256.2,197.2-256.2,197z"/>
	<path class="st0" d="M-256.2,195c0-0.2-0.2-0.4-0.4-0.4h-1.8v0.7h1.8C-256.4,195.4-256.2,195.2-256.2,195z"/>
	<path class="st0" d="M-254,191.1L-254,191.1h-9c-0.3,0-0.6,0.3-0.6,0.6c0,0,0,0.1,0,0.1l0.1,1h1.2l0-0.4h7.7l-0.7,10.4h-2.3v0.7
		h2.3v2.5h-2.3v1.2h2.9c0.3,0,0.6-0.3,0.6-0.6v-3.4l0.8-11.3C-253.4,191.4-253.7,191.1-254,191.1z"/>
	<path class="st0" d="M-259,197.2L-259,197.2l-0.1-3.2c0-0.3-0.3-0.6-0.6-0.6h-8.1c-0.3,0-0.6,0.3-0.6,0.6v3.2h-0.1
		c-0.3,0-0.6,0.3-0.6,0.6v11c0,0.3,0.3,0.6,0.6,0.6h9.5c0.3,0,0.6-0.3,0.6-0.6v-11C-258.3,197.4-258.6,197.2-259,197.2L-259,197.2z
		 M-267.1,194.6L-267.1,194.6h6.9v2.6h-6.9V194.6L-267.1,194.6z M-259.6,208.1L-259.6,208.1h-8.2v-9.7h8.2V208.1L-259.6,208.1z
		 M-265.9,206.5L-265.9,206.5c0.2,0.2,0.6,0.4,0.9,0.4c0.4,0,0.7-0.1,0.9-0.4h0c0.2-0.2,0.4-0.6,0.4-0.9c0-0.4-0.2-0.7-0.4-0.9
		c-0.2-0.2-0.6-0.4-0.9-0.4c-0.4,0-0.7,0.1-0.9,0.4c-0.2,0.2-0.4,0.6-0.4,0.9C-266.3,206-266.1,206.3-265.9,206.5L-265.9,206.5
		L-265.9,206.5z M-265.4,205.2L-265.4,205.2L-265.4,205.2c0.1-0.1,0.3-0.2,0.4-0.2c0.2,0,0.3,0.1,0.4,0.2c0.1,0.1,0.2,0.2,0.2,0.4
		c0,0.2-0.1,0.3-0.2,0.4c-0.1,0.1-0.3,0.2-0.4,0.2c-0.2,0-0.3-0.1-0.4-0.2l0,0c-0.1-0.1-0.2-0.2-0.2-0.4
		C-265.5,205.4-265.5,205.3-265.4,205.2L-265.4,205.2z M-264.4,203.3L-264.4,203.3c0.5,0,1-0.2,1.3-0.5v0c0.3-0.3,0.5-0.8,0.5-1.3
		c0-0.5-0.2-1-0.5-1.3c-0.3-0.3-0.8-0.5-1.3-0.5c-0.5,0-1,0.2-1.3,0.5c-0.3,0.3-0.5,0.8-0.5,1.3c0,0.5,0.2,1,0.5,1.3
		C-265.4,203.1-264.9,203.3-264.4,203.3L-264.4,203.3z M-265.2,200.7L-265.2,200.7c0.2-0.2,0.5-0.3,0.8-0.3c0.3,0,0.6,0.1,0.8,0.3
		c0.2,0.2,0.3,0.5,0.3,0.8c0,0.3-0.1,0.6-0.3,0.8l0,0c-0.2,0.2-0.5,0.3-0.8,0.3c-0.3,0-0.6-0.1-0.8-0.3c-0.2-0.2-0.3-0.5-0.3-0.8
		C-265.5,201.1-265.4,200.8-265.2,200.7L-265.2,200.7z M-263,203.5L-263,203.5c-0.2,0.2-0.4,0.6-0.4,0.9c0,0.4,0.1,0.7,0.4,0.9l0,0
		c0.2,0.2,0.6,0.4,0.9,0.4c0.4,0,0.7-0.1,0.9-0.4v0c0.2-0.2,0.4-0.6,0.4-0.9c0-0.4-0.1-0.7-0.4-0.9c-0.2-0.2-0.6-0.4-0.9-0.4
		C-262.4,203.1-262.7,203.2-263,203.5L-263,203.5z M-262.4,204L-262.4,204L-262.4,204c0.1-0.1,0.2-0.2,0.4-0.2
		c0.2,0,0.3,0.1,0.4,0.2c0.1,0.1,0.2,0.2,0.2,0.4c0,0.2-0.1,0.3-0.2,0.4h0c-0.1,0.1-0.3,0.2-0.4,0.2c-0.2,0-0.3-0.1-0.4-0.2l0,0
		c-0.1-0.1-0.2-0.2-0.2-0.4C-262.6,204.3-262.6,204.1-262.4,204L-262.4,204z"/>
</g>
</svg>
